# Blender v2.70 (sub 0) OBJ File: 'mechBottom2.blend'
# www.blender.org
mtllib mechBottom.mtl
o Cylinder_Cylinder.004
v -0.340712 -0.305860 0.000000
v -0.340712 0.170566 0.000000
v -0.309660 -0.305860 -0.095569
v -0.309660 0.170566 -0.095569
v -0.228365 -0.305860 -0.154634
v -0.228365 0.170566 -0.154634
v -0.127877 -0.305860 -0.154634
v -0.127877 0.170566 -0.154634
v -0.046582 -0.305860 -0.095569
v -0.046582 0.170566 -0.095569
v -0.015529 -0.305860 0.000000
v -0.015529 0.170566 0.000000
v -0.046581 -0.305860 0.095569
v -0.046581 0.170566 0.095569
v -0.127877 -0.305860 0.154634
v -0.127877 0.170566 0.154634
v -0.228364 -0.305860 0.154634
v -0.228364 0.170566 0.154634
v -0.309660 -0.305860 0.095569
v -0.309660 0.170566 0.095569
v -0.616503 -0.275908 0.000000
v -0.532780 -0.275908 -0.257674
v -0.313589 -0.275908 -0.416926
v -0.042654 -0.275908 -0.416926
v 0.176538 -0.275908 -0.257675
v 0.260261 -0.275908 -0.000000
v 0.176538 -0.275908 0.257675
v -0.042653 -0.275908 0.416926
v -0.313588 -0.275908 0.416926
v -0.532779 -0.275908 0.257675
v -0.616503 -0.550945 0.000000
v -0.532780 -0.550945 -0.257674
v -0.313589 -0.550945 -0.416926
v -0.042654 -0.550945 -0.416926
v 0.176538 -0.550945 -0.257675
v 0.260261 -0.550945 -0.000000
v 0.176538 -0.550945 0.257675
v -0.042653 -0.550945 0.416926
v -0.313588 -0.550945 0.416926
v -0.532779 -0.550945 0.257675
v -0.178121 -0.340063 -0.838596
v -0.178121 -0.340063 0.838597
v -0.140759 -0.352203 -0.838596
v -0.140759 -0.352203 0.838597
v -0.117668 -0.383985 -0.838596
v -0.117668 -0.383985 0.838597
v -0.117668 -0.423269 -0.838597
v -0.117668 -0.423269 0.838596
v -0.140759 -0.455051 -0.838597
v -0.140759 -0.455052 0.838596
v -0.178121 -0.467191 -0.838597
v -0.178121 -0.467191 0.838596
v -0.215483 -0.455051 -0.838597
v -0.215483 -0.455052 0.838596
v -0.238574 -0.423269 -0.838597
v -0.238574 -0.423269 0.838596
v -0.238574 -0.383985 -0.838596
v -0.238574 -0.383985 0.838597
v -0.215483 -0.352203 -0.838596
v -0.215483 -0.352203 0.838597
v -0.178121 -0.199387 -0.898173
v -0.178121 -0.199387 0.898175
v -0.058072 -0.238393 -0.898173
v -0.058072 -0.238394 0.898174
v 0.016123 -0.340513 -0.898174
v 0.016123 -0.340513 0.898174
v 0.016123 -0.466740 -0.898174
v 0.016123 -0.466741 0.898174
v -0.058072 -0.568860 -0.898174
v -0.058072 -0.568861 0.898174
v -0.178121 -0.607867 -0.898175
v -0.178121 -0.607867 0.898174
v -0.298170 -0.568860 -0.898174
v -0.298170 -0.568861 0.898174
v -0.372365 -0.466740 -0.898174
v -0.372365 -0.466741 0.898174
v -0.372365 -0.340513 -0.898174
v -0.372365 -0.340513 0.898174
v -0.298170 -0.238393 -0.898173
v -0.298170 -0.238394 0.898175
v -0.178121 -0.199387 -1.133258
v -0.178121 -0.199387 1.133259
v -0.058072 -0.238393 -1.133258
v -0.058072 -0.238394 1.133259
v 0.016123 -0.340513 -1.133258
v 0.016123 -0.340513 1.133259
v 0.016123 -0.466740 -1.133258
v 0.016123 -0.466741 1.133258
v -0.058072 -0.568860 -1.133259
v -0.058072 -0.568861 1.133258
v -0.178121 -0.607867 -1.133259
v -0.178121 -0.607867 1.133258
v -0.298170 -0.568860 -1.133259
v -0.298170 -0.568861 1.133258
v -0.372365 -0.466740 -1.133258
v -0.372365 -0.466741 1.133258
v -0.372365 -0.340513 -1.133258
v -0.372365 -0.340513 1.133259
v -0.298170 -0.238393 -1.133258
v -0.298170 -0.238394 1.133259
v 0.253284 -1.498264 -0.897430
v 0.253283 -1.498264 0.897430
v 0.100411 -1.493947 -0.897431
v 0.100411 -1.493947 0.897430
v 0.253284 -1.498264 -1.132320
v 0.253283 -1.498264 1.132320
v 0.100411 -1.493947 -1.132320
v 0.100411 -1.493947 1.132320
v 0.399578 -1.534553 -0.779985
v 0.399577 -1.534553 0.779985
v -0.053372 -1.530236 -0.779986
v -0.053373 -1.530236 0.779985
v 0.399578 -1.534553 -1.249764
v 0.399577 -1.534553 1.249764
v -0.053372 -1.530236 -1.249765
v -0.053373 -1.530236 1.249764
v 0.398193 -1.679876 -0.779985
v 0.398192 -1.679876 0.779985
v -0.054757 -1.675559 -0.779986
v -0.054758 -1.675559 0.779985
v 0.398193 -1.679876 -1.249764
v 0.398192 -1.679876 1.249764
v -0.054757 -1.675559 -1.249765
v -0.054758 -1.675559 1.249764
v -0.053372 -1.530236 -1.093172
v -0.053372 -1.530236 -0.936579
v 0.399578 -1.534553 -0.936579
v 0.399578 -1.534553 -1.093172
v -0.053373 -1.530236 0.936578
v -0.053373 -1.530236 1.093171
v 0.399577 -1.534553 1.093171
v 0.399577 -1.534553 0.936578
v -0.054757 -1.675559 -1.093172
v -0.054757 -1.675559 -0.936579
v 0.398193 -1.679876 -0.936578
v 0.398193 -1.679876 -1.093171
v -0.054758 -1.675559 0.936578
v -0.054758 -1.675559 1.093171
v 0.398192 -1.679876 1.093171
v 0.398192 -1.679876 0.936578
v 1.016483 -1.631562 -0.707720
v 1.016483 -1.631563 0.707719
v 1.016483 -1.631562 -1.367812
v 1.016483 -1.631563 1.367812
v 1.015098 -1.685756 -0.707720
v 1.015097 -1.685757 0.707719
v 1.015098 -1.685756 -1.367812
v 1.015097 -1.685757 1.367812
v 1.016483 -1.631562 -0.849804
v 1.016483 -1.631562 -1.196428
v 1.016483 -1.631563 1.196428
v 1.016483 -1.631563 0.849804
v 1.015098 -1.685756 -0.849804
v 1.015098 -1.685756 -1.196428
v 1.015097 -1.685757 1.196428
v 1.015097 -1.685757 0.849804
v -0.670866 -1.615479 -1.093172
v -0.670866 -1.615479 -0.936579
v -0.670866 -1.615479 0.936578
v -0.670866 -1.615479 1.093171
v -0.672251 -1.669673 -1.093172
v -0.672251 -1.669673 -0.936579
v -0.672252 -1.669674 0.936578
v -0.672251 -1.669674 1.093171
vt 1.000000 0.000000
vt 1.000000 1.000000
vt 0.000000 1.000000
vt 0.024472 0.345491
vt 0.024472 0.654509
vt 0.206108 0.904509
vt 0.000000 0.000000
vt 0.206107 0.095492
vt 0.933013 0.750000
vt 0.933013 0.250000
vt 0.500000 0.000000
vt 0.500000 1.000000
vt 0.793893 0.904508
vt 0.975528 0.654508
vt 0.975528 0.345491
vt 0.793893 0.095491
vt 0.066987 0.250000
vt 0.066987 0.750000
vn -0.951057 0.000000 -0.309016
vn -0.587786 -0.000000 -0.809017
vn -0.000001 -0.000000 -1.000000
vn 0.587785 -0.000000 -0.809017
vn 0.951056 0.000000 -0.309017
vn 0.951057 0.000000 0.309016
vn 0.587786 -0.000000 0.809017
vn 0.000001 0.000000 1.000000
vn 0.000000 1.000000 0.000000
vn -0.951056 -0.000000 0.309017
vn -0.587785 -0.000000 0.809017
vn -0.000000 0.993543 -0.113455
vn 0.000000 -0.000000 1.000000
vn 0.000000 0.993543 0.113455
vn -0.107902 0.993543 -0.035060
vn 0.066687 0.993543 -0.091787
vn -0.066687 0.993543 0.091787
vn 0.107902 0.993543 0.035060
vn -0.066687 0.993543 -0.091787
vn 0.066687 0.993543 0.091787
vn 0.107902 0.993543 -0.035060
vn -0.107902 0.993543 0.035060
vn 0.000000 -1.000000 0.000000
vn -0.951056 -0.000000 0.309018
vn 0.309018 0.951056 0.000000
vn 0.809016 0.587786 -0.000000
vn 1.000000 -0.000002 0.000000
vn 0.809017 -0.587785 -0.000000
vn 0.309017 -0.951057 -0.000000
vn -0.309017 -0.951057 0.000000
vn -0.809017 -0.587785 0.000000
vn -1.000000 -0.000000 0.000000
vn 0.406791 0.000005 -0.913521
vn -0.309018 0.951056 0.000000
vn -0.809017 0.587786 0.000000
vn -0.125706 0.386883 0.913520
vn -1.000000 0.000001 -0.000000
vn -0.309016 0.951057 0.000000
vn 0.329105 0.239099 0.913521
vn 0.125705 0.386883 0.913520
vn -0.329104 -0.239105 -0.913520
vn -0.125706 -0.386885 0.913519
vn -0.125707 0.386884 -0.913520
vn -0.329104 0.239106 0.913520
vn 0.125698 -0.386885 0.913521
vn 0.329098 0.239111 -0.913521
vn 0.125700 0.386885 -0.913520
vn -0.125707 -0.386884 -0.913520
vn -0.329102 0.239111 -0.913519
vn 0.125707 -0.386884 -0.913520
vn 0.329103 -0.239109 0.913520
vn -0.406794 -0.000004 0.913520
vn -0.406795 0.000001 -0.913520
vn -0.329103 -0.239109 0.913520
vn 0.329107 -0.239100 -0.913521
vn 0.406791 -0.000011 0.913521
vn 0.000000 -0.000003 1.000000
vn -0.000002 0.000004 -1.000000
vn -0.309018 -0.951056 0.000000
vn 0.809018 0.587785 0.000000
vn 0.809017 0.587785 -0.000000
vn -0.309019 -0.951056 -0.000000
vn 0.809017 -0.587786 0.000000
vn -0.809017 0.587785 -0.000000
vn 0.948207 0.317654 0.000000
vn 1.000000 -0.000000 0.000000
vn 0.309016 0.951057 -0.000000
vn -0.809017 -0.587786 0.000000
vn -0.809016 0.587786 -0.000000
vn -0.953978 -0.299875 0.000000
vn 0.009137 0.958544 -0.284797
vn 0.240759 0.970585 -0.000000
vn -0.953978 -0.299876 0.000000
vn -0.000030 -0.001068 0.999999
vn -0.000234 0.000722 -1.000000
vn 0.948207 0.317654 -0.000001
vn 0.000297 -0.000911 -0.999999
vn 0.000021 0.000846 1.000000
vn -0.000000 0.000000 -1.000000
vn -0.999955 0.009532 -0.000000
vn -0.229666 0.973269 -0.000000
vn 0.009136 0.958544 -0.284798
vn 0.240758 0.970585 0.000001
vn 0.026680 0.944704 0.326838
vn -0.229667 0.973269 0.000000
vn 0.026679 0.944704 0.326839
vn -0.009532 -0.999955 0.000001
vn -0.009532 -0.999955 0.000000
vn 0.155343 0.987861 0.000000
vn -0.000001 0.000000 1.000000
vn -0.999955 0.009531 0.000000
vn -0.009531 -0.999954 -0.000001
vn 0.000002 -0.000000 -1.000000
vn -0.999955 0.009532 -0.000001
vn -0.009532 -0.999955 -0.000001
vn -0.009532 -0.999955 -0.000002
vn 0.999955 -0.009531 0.000000
vn -0.009531 -0.999955 -0.000001
vn -0.115887 0.002962 -0.993258
vn 0.999955 -0.009532 -0.000001
vn 0.999674 -0.025551 0.000000
vn 0.999673 -0.025555 0.000001
vn 0.999674 -0.025546 -0.000000
vn 0.999673 -0.025554 0.000000
vn 0.139277 -0.001328 0.990252
vn 0.165067 -0.001572 0.986281
vn -0.187928 0.001791 0.982181
vn -0.187217 0.004785 -0.982307
vn 0.164438 -0.004203 -0.986378
vn 0.138742 -0.003546 -0.990322
vn -0.116337 0.001109 0.993209
vn 0.155343 0.987861 0.000001
vn -0.999673 0.025552 -0.000000
vn -0.999674 0.025548 -0.000000
vn -0.136750 0.990606 0.000001
vn -0.136750 0.990606 0.000000
vn -0.009531 -0.999955 -0.000000
vn 0.951056 0.000000 -0.309018
vn 0.107903 0.993543 0.035060
vn 0.809018 0.587784 0.000000
vn 0.809016 -0.587787 -0.000000
vn 0.309020 -0.951055 -0.000000
vn -0.309020 -0.951055 -0.000000
vn -0.809015 -0.587788 -0.000000
vn 0.406795 0.000001 -0.913520
vn -0.125706 0.386884 0.913520
vn -0.309017 0.951057 -0.000000
vn 0.329104 0.239106 0.913520
vn 0.125706 0.386883 0.913520
vn -0.329103 -0.239107 -0.913520
vn -0.125702 -0.386884 0.913520
vn -0.329106 0.239099 0.913521
vn 0.125705 -0.386885 0.913520
vn 0.329103 0.239109 -0.913520
vn 0.125704 0.386885 -0.913520
vn -0.125712 -0.386878 -0.913522
vn -0.329095 0.239114 -0.913521
vn 0.125708 -0.386884 -0.913520
vn 0.329103 -0.239108 0.913520
vn -0.406791 -0.000011 0.913521
vn -0.406793 0.000006 -0.913520
vn 0.329106 -0.239106 -0.913519
vn 0.406794 -0.000004 0.913520
vn 0.000002 0.000000 1.000000
vn -0.000003 -0.000003 1.000000
vn 0.000001 -0.000004 1.000000
vn 0.000001 0.000002 -1.000000
vn 0.000001 0.000005 -1.000000
vn -0.000000 -0.000004 1.000000
vn -0.000001 -0.000003 1.000000
vn 0.000000 0.000003 -1.000000
vn -0.309017 -0.951056 -0.000000
vn 0.000000 0.000001 -1.000000
vn 0.000000 0.000004 -1.000000
vn 0.026682 0.944704 -0.326838
vn 0.240758 0.970585 0.000000
vn 0.000295 -0.000910 0.999999
vn 0.240759 0.970585 -0.000001
vn 0.000024 0.000847 -1.000000
vn -0.000028 -0.001068 -0.999999
vn -0.000235 0.000722 1.000000
vn 0.026679 0.944704 -0.326837
vn 0.009137 0.958545 0.284796
vn 0.240758 0.970585 -0.000001
vn 0.009136 0.958544 0.284797
vn -0.009532 -0.999954 0.000001
vn -0.009532 -0.999954 0.000000
vn -0.116337 0.001109 -0.993209
vn 0.999955 -0.009531 0.000001
vn 0.999673 -0.025551 -0.000001
vn 0.999673 -0.025555 0.000000
vn 0.138742 -0.003547 0.990322
vn 0.164437 -0.004202 0.986379
vn -0.187217 0.004786 0.982307
vn -0.187928 0.001791 -0.982181
vn 0.165068 -0.001574 -0.986281
vn 0.139277 -0.001328 -0.990253
vn -0.115887 0.002962 0.993258
vn -0.999673 0.025549 0.000001
vn -0.999674 0.025549 0.000000
usemtl None
s off
f 2/1/1 4/2/1 3/3/1
f 4/1/2 6/2/2 5/3/2
f 6/1/3 8/2/3 7/3/3
f 8/1/4 10/2/4 9/3/4
f 10/1/5 12/2/5 11/3/5
f 12/1/6 14/2/6 13/3/6
f 14/1/7 16/2/7 15/3/7
f 16/1/8 18/2/8 17/3/8
f 10/4/9 8/5/9 6/6/9
f 20/1/10 2/2/10 1/3/10
f 18/1/11 20/2/11 19/3/11
f 17/1/12 29/2/12 28/3/12
f 29/1/13 39/2/13 38/3/13
f 5/7/14 7/1/14 24/2/14
f 11/7/15 13/1/15 27/2/15
f 19/1/16 30/2/16 29/3/16
f 9/1/17 25/2/17 24/3/17
f 3/1/18 22/2/18 21/3/18
f 13/7/19 15/1/19 28/2/19
f 5/1/20 23/2/20 22/3/20
f 1/1/21 21/2/21 30/3/21
f 11/1/22 26/2/22 25/3/22
f 37/8/23 38/4/23 39/5/23
f 24/1/3 34/2/3 33/3/3
f 28/1/7 38/2/7 37/3/7
f 23/1/2 33/2/2 32/3/2
f 27/1/6 37/2/6 36/3/6
f 22/1/1 32/2/1 31/3/1
f 21/1/24 31/2/24 40/3/24
f 26/1/5 36/2/5 35/3/5
f 30/1/11 40/2/11 39/3/11
f 25/1/4 35/2/4 34/3/4
f 42/1/25 44/2/25 43/3/25
f 44/1/26 46/2/26 45/3/26
f 46/1/27 48/2/27 47/3/27
f 48/1/28 50/2/28 49/3/28
f 50/1/29 52/2/29 51/3/29
f 51/7/30 52/1/30 54/2/30
f 54/1/31 56/2/31 55/3/31
f 55/7/32 56/1/32 58/2/32
f 48/7/33 46/1/33 66/2/33
f 60/1/34 42/2/34 41/3/34
f 57/7/35 58/1/35 60/2/35
f 41/1/36 61/2/36 79/3/36
f 77/1/37 97/2/37 95/3/37
f 79/7/38 61/1/38 81/2/38
f 43/7/39 45/1/39 65/2/39
f 41/7/40 43/1/40 63/2/40
f 54/1/41 74/2/41 76/3/41
f 53/1/42 73/2/42 71/3/42
f 60/1/43 80/2/43 62/3/43
f 59/1/44 79/2/44 77/3/44
f 49/7/45 51/1/45 71/2/45
f 46/7/46 44/1/46 64/2/46
f 44/7/47 42/1/47 62/2/47
f 52/1/48 72/2/48 74/3/48
f 58/1/49 78/2/49 80/3/49
f 50/1/50 70/2/50 72/3/50
f 49/1/51 69/2/51 67/3/51
f 57/1/52 77/2/52 75/3/52
f 56/1/53 76/2/53 78/3/53
f 53/7/54 55/1/54 75/2/54
f 50/7/55 48/1/55 68/2/55
f 45/7/56 47/1/56 67/2/56
f 90/4/57 88/5/57 86/6/57
f 93/8/58 95/4/58 97/5/58
f 73/1/59 93/2/59 91/3/59
f 67/7/28 69/1/28 89/2/28
f 63/7/60 65/1/60 85/2/60
f 62/7/38 80/1/38 100/2/38
f 66/7/61 64/1/61 84/2/61
f 76/1/32 96/2/32 98/3/32
f 72/1/62 92/2/62 94/3/62
f 70/7/63 68/1/63 88/2/63
f 79/1/64 99/2/64 97/3/64
f 89/7/65 69/1/65 101/2/65
f 65/7/66 67/1/66 87/2/66
f 61/7/67 63/1/67 83/2/67
f 75/1/68 95/2/68 93/3/68
f 78/1/69 98/2/69 100/3/69
f 74/1/31 94/2/31 96/3/31
f 92/7/70 72/1/70 104/2/70
f 68/7/66 66/1/66 86/2/66
f 64/7/67 62/1/67 82/2/67
f 105/1/71 113/2/71 115/3/71
f 106/9/72 114/10/72 131/11/72
f 91/1/73 107/2/73 103/3/73
f 92/1/74 108/2/74 106/3/74
f 72/7/75 70/1/75 102/2/75
f 90/1/76 106/2/76 102/3/76
f 91/7/77 89/1/77 105/2/77
f 71/1/78 103/2/78 101/3/78
f 110/1/79 118/2/79 120/3/79
f 112/1/80 120/2/80 137/3/80
f 104/9/81 112/10/81 129/11/81
f 102/1/82 110/2/82 112/3/82
f 101/9/83 109/10/83 127/11/83
f 101/7/84 103/1/84 111/2/84
f 107/9/85 115/10/85 125/11/85
f 106/7/86 108/1/86 116/2/86
f 136/7/87 133/1/87 123/2/87
f 139/1/88 122/2/88 124/3/88
f 131/7/89 114/1/89 144/2/89
f 111/1/90 119/2/90 117/3/90
f 115/1/91 123/2/91 133/3/91
f 114/7/13 116/1/13 124/2/13
f 135/1/92 153/2/92 145/3/92
f 113/1/93 121/2/93 123/3/93
f 116/7/94 130/1/94 138/2/94
f 129/7/79 137/1/79 163/2/79
f 117/7/88 119/1/88 134/2/88
f 135/7/88 134/1/88 133/2/88
f 118/1/95 140/2/95 137/3/95
f 140/1/96 139/2/96 138/3/96
f 139/1/95 155/2/95 148/3/95
f 128/7/97 127/1/97 135/2/97
f 126/1/91 134/2/91 119/3/91
f 138/1/98 164/2/98 163/3/98
f 110/1/99 142/2/99 146/3/99
f 132/7/100 131/1/100 139/2/100
f 141/1/101 145/2/101 153/3/101
f 144/1/102 148/2/102 155/3/102
f 143/7/103 150/1/103 154/2/103
f 152/1/104 156/2/104 146/3/104
f 132/7/105 140/1/105 156/2/105
f 127/7/89 109/1/89 141/2/89
f 128/7/106 136/1/106 154/2/106
f 114/7/107 122/1/107 148/2/107
f 132/1/89 152/2/89 142/3/89
f 113/1/108 143/2/108 147/3/108
f 140/7/95 118/1/95 146/2/95
f 131/1/109 151/2/109 155/3/109
f 127/1/110 149/2/110 153/3/110
f 109/7/111 117/1/111 145/2/111
f 136/7/98 121/1/98 147/2/98
f 128/1/112 150/2/112 143/3/112
f 160/7/113 159/1/113 163/2/113
f 157/1/114 161/2/114 162/3/114
f 130/1/13 160/2/13 164/3/13
f 126/7/115 125/1/115 157/2/115
f 125/7/79 133/1/79 161/2/79
f 129/1/116 159/2/116 160/3/116
f 126/1/13 158/2/13 162/3/13
f 134/1/117 162/2/117 161/3/117
f 1/7/1 2/1/1 3/3/1
f 3/7/2 4/1/2 5/3/2
f 5/7/3 6/1/3 7/3/3
f 7/7/4 8/1/4 9/3/4
f 9/7/118 10/1/118 11/3/118
f 11/7/6 12/1/6 13/3/6
f 13/7/7 14/1/7 15/3/7
f 15/7/8 16/1/8 17/3/8
f 6/6/9 4/12/9 2/13/9
f 2/13/9 20/14/9 18/15/9
f 18/15/9 16/16/9 14/11/9
f 10/4/9 6/6/9 12/8/9
f 19/7/10 20/1/10 1/3/10
f 6/6/9 2/13/9 18/15/9
f 17/7/11 18/1/11 19/3/11
f 6/6/9 14/11/9 12/8/9
f 6/6/9 18/15/9 14/11/9
f 15/7/12 17/1/12 28/3/12
f 28/7/13 29/1/13 38/3/13
f 23/3/14 5/7/14 24/2/14
f 26/3/15 11/7/15 27/2/15
f 17/7/16 19/1/16 29/3/16
f 7/7/17 9/1/17 24/3/17
f 1/7/119 3/1/119 21/3/119
f 27/3/19 13/7/19 28/2/19
f 3/7/20 5/1/20 22/3/20
f 19/7/21 1/1/21 30/3/21
f 9/7/22 11/1/22 25/3/22
f 32/13/23 35/16/23 31/12/23
f 32/13/23 33/14/23 34/15/23
f 36/11/23 40/6/23 35/16/23
f 27/7/7 28/1/7 37/3/7
f 40/6/23 37/8/23 39/5/23
f 34/15/23 35/16/23 32/13/23
f 23/7/3 24/1/3 33/3/3
f 35/16/23 40/6/23 31/12/23
f 40/6/23 36/11/23 37/8/23
f 22/7/2 23/1/2 32/3/2
f 26/7/6 27/1/6 36/3/6
f 21/7/1 22/1/1 31/3/1
f 30/7/24 21/1/24 40/3/24
f 25/7/5 26/1/5 35/3/5
f 29/7/11 30/1/11 39/3/11
f 24/7/4 25/1/4 34/3/4
f 41/7/67 42/1/67 43/3/67
f 43/7/120 44/1/120 45/3/120
f 45/7/66 46/1/66 47/3/66
f 47/7/121 48/1/121 49/3/121
f 49/7/122 50/1/122 51/3/122
f 53/3/123 51/7/123 54/2/123
f 53/7/124 54/1/124 55/3/124
f 57/3/32 55/7/32 58/2/32
f 68/3/125 48/7/125 66/2/125
f 59/7/38 60/1/38 41/3/38
f 59/3/64 57/7/64 60/2/64
f 59/7/126 41/1/126 79/3/126
f 75/7/32 77/1/32 95/3/32
f 99/3/127 79/7/127 81/2/127
f 63/3/128 43/7/128 65/2/128
f 61/3/129 41/7/129 63/2/129
f 56/7/130 54/1/130 76/3/130
f 51/7/131 53/1/131 71/3/131
f 42/7/43 60/1/43 62/3/43
f 57/7/132 59/1/132 77/3/132
f 69/3/133 49/7/133 71/2/133
f 66/3/134 46/7/134 64/2/134
f 64/3/135 44/7/135 62/2/135
f 54/7/136 52/1/136 74/3/136
f 60/7/137 58/1/137 80/3/137
f 52/7/138 50/1/138 72/3/138
f 47/7/139 49/1/139 67/3/139
f 55/7/140 57/1/140 75/3/140
f 58/7/141 56/1/141 78/3/141
f 73/3/54 53/7/54 75/2/54
f 70/3/142 50/7/142 68/2/142
f 65/3/143 45/7/143 67/2/143
f 86/6/144 84/12/144 82/13/144
f 98/15/145 96/16/145 100/14/145
f 94/11/146 82/13/146 96/16/146
f 94/11/13 92/8/13 90/4/13
f 83/13/147 85/14/147 81/12/147
f 87/15/148 99/6/148 85/14/148
f 90/4/57 82/13/57 94/11/57
f 96/16/149 82/13/149 100/14/149
f 90/4/150 86/6/150 82/13/150
f 91/11/151 93/8/151 89/16/151
f 71/7/152 73/1/152 91/3/152
f 99/6/151 93/8/151 97/5/151
f 85/14/153 99/6/153 81/12/153
f 93/8/154 87/15/154 89/16/154
f 87/15/151 93/8/151 99/6/151
f 87/3/28 67/7/28 89/2/28
f 83/3/120 63/7/120 85/2/120
f 82/3/38 62/7/38 100/2/38
f 86/3/61 66/7/61 84/2/61
f 78/7/32 76/1/32 98/3/32
f 74/7/62 72/1/62 94/3/62
f 90/3/63 70/7/63 88/2/63
f 77/7/35 79/1/35 97/3/35
f 105/3/65 89/7/65 101/2/65
f 85/3/66 65/7/66 87/2/66
f 81/3/67 61/7/67 83/2/67
f 73/7/31 75/1/31 93/3/31
f 80/7/69 78/1/69 100/3/69
f 76/7/31 74/1/31 96/3/31
f 108/3/70 92/7/70 104/2/70
f 88/3/66 68/7/66 86/2/66
f 84/3/67 64/7/67 82/2/67
f 107/7/155 105/1/155 115/3/155
f 106/9/156 132/17/156 102/12/156
f 71/7/73 91/1/73 103/3/73
f 90/7/157 92/1/157 106/3/157
f 106/9/158 131/11/158 132/17/158
f 132/17/156 110/18/156 102/12/156
f 104/3/159 72/7/159 102/2/159
f 70/7/65 90/1/65 102/3/65
f 107/3/160 91/7/160 105/2/160
f 69/7/161 71/1/161 101/3/161
f 112/7/79 110/1/79 120/3/79
f 129/7/80 112/1/80 137/3/80
f 107/9/85 126/17/85 103/12/85
f 104/7/162 102/1/162 112/3/162
f 108/12/81 104/9/81 129/11/81
f 130/17/81 108/12/81 129/11/81
f 130/17/81 116/18/81 108/12/81
f 109/3/163 101/7/163 111/2/163
f 105/12/156 101/9/156 127/11/156
f 128/17/156 105/12/156 127/11/156
f 128/17/164 113/18/164 105/12/164
f 114/3/165 106/7/165 116/2/165
f 121/3/166 136/7/166 123/2/166
f 107/9/85 125/11/85 126/17/85
f 126/17/85 111/18/85 103/12/85
f 138/7/88 139/1/88 124/3/88
f 151/3/89 131/7/89 144/2/89
f 109/7/90 111/1/90 117/3/90
f 125/7/91 115/1/91 133/3/91
f 122/3/13 114/7/13 124/2/13
f 117/7/98 135/1/98 145/3/98
f 115/7/93 113/1/93 123/3/93
f 124/3/91 116/7/91 138/2/91
f 159/3/79 129/7/79 163/2/79
f 135/3/88 117/7/88 134/2/88
f 136/3/88 135/7/88 133/2/88
f 120/7/167 118/1/167 137/3/167
f 137/7/95 140/1/95 138/3/95
f 122/7/95 139/1/95 148/3/95
f 136/3/97 128/7/97 135/2/97
f 111/7/91 126/1/91 119/3/91
f 137/7/98 138/1/98 163/3/98
f 118/7/168 110/1/168 146/3/168
f 140/3/169 132/7/169 139/2/169
f 149/7/101 141/1/101 153/3/101
f 151/7/104 144/1/104 155/3/104
f 147/3/170 143/7/170 154/2/170
f 142/7/171 152/1/171 146/3/171
f 152/3/172 132/7/172 156/2/172
f 149/3/89 127/7/89 141/2/89
f 150/3/173 128/7/173 154/2/173
f 144/3/174 114/7/174 148/2/174
f 110/7/89 132/1/89 142/3/89
f 121/7/175 113/1/175 147/3/175
f 156/3/95 140/7/95 146/2/95
f 139/7/176 131/1/176 155/3/176
f 135/7/177 127/1/177 153/3/177
f 141/3/178 109/7/178 145/2/178
f 154/3/98 136/7/98 147/2/98
f 113/7/112 128/1/112 143/3/112
f 164/3/179 160/7/179 163/2/179
f 158/7/180 157/1/180 162/3/180
f 138/7/13 130/1/13 164/3/13
f 158/3/115 126/7/115 157/2/115
f 157/3/79 125/7/79 161/2/79
f 130/7/116 129/1/116 160/3/116
f 134/7/13 126/1/13 162/3/13
f 133/7/117 134/1/117 161/3/117
