# Blender v2.70 (sub 0) OBJ File: 'bullet.blend'
# www.blender.org
mtllib bullet.mtl
o Sphere
v -0.047497 0.177262 0.000000
v -0.091757 0.158928 0.000000
v -0.129765 0.129765 0.000000
v -0.158928 0.091757 0.000000
v -0.177262 0.047497 0.000000
v -0.183515 0.000000 0.000000
v -0.177262 -0.047497 0.000000
v -0.158928 -0.091757 0.000000
v -0.129765 -0.129765 0.000000
v -0.091757 -0.158928 0.000000
v -0.047497 -0.177262 0.000000
v -0.000000 -0.183515 0.000000
v -0.041134 0.177262 -0.023749
v -0.079464 0.158928 -0.045879
v -0.112379 0.129765 -0.064882
v -0.137636 0.091757 -0.079464
v -0.153513 0.047497 -0.088631
v -0.158928 0.000000 -0.091757
v -0.153513 -0.047497 -0.088631
v -0.137636 -0.091757 -0.079464
v -0.112379 -0.129765 -0.064882
v -0.079464 -0.158928 -0.045879
v -0.041134 -0.177262 -0.023749
v -0.023749 0.177262 -0.041134
v -0.045879 0.158928 -0.079464
v -0.064882 0.129765 -0.112379
v -0.079464 0.091757 -0.137636
v -0.088631 0.047497 -0.153513
v -0.091757 0.000000 -0.158928
v -0.088631 -0.047497 -0.153513
v -0.079464 -0.091757 -0.137636
v -0.064882 -0.129765 -0.112379
v -0.045879 -0.158928 -0.079464
v -0.023749 -0.177262 -0.041134
v -0.000000 0.177262 -0.047497
v -0.000000 0.158928 -0.091757
v -0.000000 0.129765 -0.129764
v -0.000000 0.091757 -0.158928
v -0.000000 0.047497 -0.177262
v -0.000000 0.000000 -0.183515
v -0.000000 -0.047497 -0.177262
v -0.000000 -0.091757 -0.158928
v -0.000000 -0.129765 -0.129764
v -0.000000 -0.158928 -0.091757
v -0.000000 -0.177262 -0.047497
v 0.023748 0.177262 -0.041134
v 0.045879 0.158928 -0.079464
v 0.064882 0.129765 -0.112379
v 0.079464 0.091757 -0.137636
v 0.088631 0.047497 -0.153513
v 0.091757 0.000000 -0.158928
v 0.088631 -0.047497 -0.153513
v 0.079464 -0.091757 -0.137636
v 0.064882 -0.129765 -0.112379
v 0.045879 -0.158928 -0.079464
v 0.023748 -0.177262 -0.041134
v -0.000000 0.183515 0.000000
v 0.041134 0.177262 -0.023749
v 0.079464 0.158928 -0.045879
v 0.112379 0.129765 -0.064882
v 0.137636 0.091757 -0.079464
v 0.153513 0.047497 -0.088631
v 0.158928 0.000000 -0.091757
v 0.153513 -0.047497 -0.088631
v 0.137636 -0.091757 -0.079464
v 0.112379 -0.129765 -0.064882
v 0.079464 -0.158928 -0.045879
v 0.041134 -0.177262 -0.023749
v 0.047497 0.177262 0.000000
v 0.091757 0.158928 0.000000
v 0.129764 0.129765 0.000000
v 0.158928 0.091757 0.000000
v 0.177261 0.047497 0.000000
v 0.183515 0.000000 0.000000
v 0.177262 -0.047497 0.000000
v 0.158928 -0.091757 0.000000
v 0.129764 -0.129765 -0.000000
v 0.091757 -0.158928 0.000000
v 0.047497 -0.177262 0.000000
v 0.041134 0.177262 0.023749
v 0.079464 0.158928 0.045879
v 0.112379 0.129765 0.064882
v 0.137636 0.091757 0.079464
v 0.153513 0.047497 0.088631
v 0.158928 0.000000 0.091757
v 0.153513 -0.047497 0.088631
v 0.137636 -0.091757 0.079464
v 0.112379 -0.129765 0.064882
v 0.079464 -0.158928 0.045879
v 0.041134 -0.177262 0.023749
v 0.023748 0.177262 0.041134
v 0.045879 0.158928 0.079464
v 0.064882 0.129765 0.112379
v 0.079464 0.091757 0.137636
v 0.088631 0.047497 0.153513
v 0.091757 0.000000 0.158928
v 0.088631 -0.047497 0.153513
v 0.079464 -0.091757 0.137636
v 0.064882 -0.129765 0.112379
v 0.045879 -0.158928 0.079464
v 0.023748 -0.177262 0.041134
v -0.000000 0.177262 0.047497
v -0.000000 0.158928 0.091757
v -0.000000 0.129765 0.129764
v -0.000000 0.091757 0.158928
v -0.000000 0.047497 0.177262
v -0.000000 0.000000 0.183515
v -0.000000 -0.047497 0.177262
v -0.000000 -0.091757 0.158928
v -0.000000 -0.129765 0.129764
v -0.000000 -0.158928 0.091757
v -0.000000 -0.177262 0.047497
v -0.023749 0.177262 0.041134
v -0.045879 0.158928 0.079464
v -0.064882 0.129765 0.112379
v -0.079464 0.091757 0.137636
v -0.088631 0.047497 0.153513
v -0.091757 0.000000 0.158928
v -0.088631 -0.047497 0.153513
v -0.079464 -0.091757 0.137636
v -0.064882 -0.129765 0.112379
v -0.045879 -0.158928 0.079464
v -0.023749 -0.177262 0.041134
v -0.041134 0.177262 0.023749
v -0.079464 0.158928 0.045879
v -0.112379 0.129765 0.064882
v -0.137636 0.091757 0.079464
v -0.153513 0.047497 0.088631
v -0.158928 0.000000 0.091757
v -0.153513 -0.047497 0.088631
v -0.137636 -0.091757 0.079464
v -0.112379 -0.129765 0.064882
v -0.079464 -0.158928 0.045879
v -0.041134 -0.177262 0.023749
vt 1.000000 0.000000
vt 1.000000 1.000000
vt 0.000000 1.000000
vt 0.000000 0.000000
vn -0.896809 -0.371471 -0.240299
vn -0.600821 0.783005 -0.160990
vn -0.958209 -0.126150 -0.256751
vn -0.380687 0.919061 -0.102005
vn -0.380688 -0.919060 -0.102005
vn -0.958209 0.126151 -0.256751
vn -0.600821 -0.783005 -0.160989
vn -0.896809 0.371470 -0.240299
vn -0.776013 -0.595456 -0.207932
vn -0.776013 0.595456 -0.207932
vn -0.278683 -0.919060 -0.278683
vn -0.701458 0.126151 -0.701458
vn -0.439832 -0.783005 -0.439831
vn -0.656510 0.371470 -0.656510
vn -0.568081 -0.595456 -0.568081
vn -0.568081 0.595456 -0.568081
vn -0.656510 -0.371470 -0.656510
vn -0.439831 0.783005 -0.439832
vn -0.701458 -0.126150 -0.701458
vn -0.278682 0.919061 -0.278682
vn -0.102005 -0.919060 -0.380688
vn -0.256751 0.126151 -0.958209
vn -0.160989 -0.783005 -0.600821
vn -0.240299 0.371470 -0.896809
vn -0.207932 -0.595456 -0.776013
vn -0.207932 0.595456 -0.776013
vn -0.240299 -0.371470 -0.896809
vn -0.160989 0.783005 -0.600821
vn -0.256751 -0.126150 -0.958209
vn -0.102005 0.919061 -0.380687
vn 0.102005 -0.919060 -0.380688
vn 0.256751 0.126151 -0.958209
vn 0.160989 -0.783005 -0.600821
vn 0.240299 0.371470 -0.896809
vn 0.207932 -0.595455 -0.776013
vn 0.207932 0.595456 -0.776013
vn 0.240299 -0.371470 -0.896809
vn 0.160989 0.783005 -0.600821
vn 0.256752 -0.126151 -0.958209
vn 0.102005 0.919060 -0.380687
vn 0.278683 -0.919060 -0.278683
vn 0.701458 0.126151 -0.701458
vn 0.439831 -0.783005 -0.439831
vn 0.656510 0.371471 -0.656509
vn 0.568081 -0.595456 -0.568081
vn 0.568081 0.595456 -0.568081
vn 0.656510 -0.371470 -0.656510
vn 0.439831 0.783005 -0.439832
vn 0.701458 -0.126151 -0.701458
vn 0.278682 0.919061 -0.278683
vn 0.380688 -0.919060 -0.102005
vn 0.958209 0.126151 -0.256751
vn 0.600821 -0.783005 -0.160989
vn 0.896809 0.371470 -0.240299
vn 0.776014 -0.595455 -0.207932
vn 0.776013 0.595456 -0.207932
vn 0.896809 -0.371470 -0.240299
vn 0.600821 0.783005 -0.160989
vn 0.958209 -0.126151 -0.256751
vn 0.380687 0.919061 -0.102005
vn 0.380688 -0.919060 0.102005
vn 0.958209 0.126151 0.256751
vn 0.600821 -0.783005 0.160990
vn 0.896809 0.371470 0.240299
vn 0.776013 -0.595456 0.207932
vn 0.776013 0.595456 0.207932
vn 0.896809 -0.371471 0.240299
vn 0.600821 0.783005 0.160990
vn 0.958209 -0.126150 0.256751
vn 0.380687 0.919061 0.102005
vn 0.278683 -0.919060 0.278683
vn 0.701458 0.126151 0.701458
vn 0.439831 -0.783005 0.439832
vn 0.656509 0.371470 0.656510
vn 0.568081 -0.595455 0.568081
vn 0.568081 0.595456 0.568081
vn 0.656510 -0.371470 0.656510
vn 0.439831 0.783005 0.439832
vn 0.701458 -0.126150 0.701458
vn 0.278682 0.919060 0.278683
vn 0.102005 -0.919060 0.380688
vn 0.256751 0.126151 0.958209
vn 0.160989 -0.783005 0.600821
vn 0.240299 0.371471 0.896809
vn 0.207932 -0.595456 0.776013
vn 0.207932 0.595456 0.776013
vn 0.240299 -0.371470 0.896809
vn 0.160990 0.783005 0.600821
vn 0.256751 -0.126151 0.958209
vn 0.102005 0.919061 0.380687
vn -0.102005 -0.919060 0.380688
vn -0.256751 0.126151 0.958209
vn -0.160990 -0.783005 0.600821
vn -0.240299 0.371471 0.896809
vn -0.207932 -0.595456 0.776013
vn -0.207932 0.595456 0.776013
vn -0.240299 -0.371470 0.896809
vn -0.160990 0.783005 0.600821
vn -0.256751 -0.126150 0.958209
vn -0.102005 0.919060 0.380687
vn -0.278683 -0.919060 0.278683
vn -0.701458 0.126151 0.701458
vn -0.439832 -0.783005 0.439831
vn -0.656510 0.371471 0.656509
vn -0.568081 -0.595456 0.568081
vn -0.568081 0.595456 0.568081
vn -0.656510 -0.371471 0.656510
vn -0.439831 0.783005 0.439831
vn -0.701458 -0.126150 0.701458
vn -0.278682 0.919060 0.278683
vn -0.130447 -0.990839 -0.034953
vn -0.130447 0.990839 -0.034953
vn -0.095494 0.990839 -0.095494
vn -0.095494 -0.990839 -0.095494
vn -0.034953 0.990839 -0.130447
vn -0.034953 -0.990839 -0.130447
vn 0.034953 0.990839 -0.130447
vn 0.034953 -0.990839 -0.130447
vn 0.095494 0.990839 -0.095494
vn 0.095494 -0.990839 -0.095493
vn 0.130447 0.990839 -0.034953
vn 0.130447 -0.990839 -0.034953
vn 0.130447 0.990839 0.034953
vn 0.130447 -0.990839 0.034953
vn 0.095494 0.990839 0.095493
vn 0.095494 -0.990839 0.095494
vn 0.034953 0.990839 0.130447
vn 0.034953 -0.990839 0.130447
vn -0.034953 0.990839 0.130446
vn -0.034953 -0.990839 0.130446
vn -0.095494 0.990839 0.095493
vn -0.095494 -0.990839 0.095494
vn -0.380688 -0.919060 0.102005
vn -0.958209 0.126151 0.256752
vn -0.130447 0.990839 0.034953
vn -0.600821 -0.783005 0.160990
vn -0.896809 0.371470 0.240300
vn -0.776013 -0.595456 0.207932
vn -0.776013 0.595456 0.207932
vn -0.896809 -0.371470 0.240299
vn -0.600821 0.783005 0.160990
vn -0.130447 -0.990839 0.034953
vn -0.958209 -0.126151 0.256752
vn -0.380687 0.919061 0.102005
vn -0.896809 -0.371470 -0.240299
vn -0.600821 0.783005 -0.160989
vn -0.958209 -0.126151 -0.256751
vn -0.380688 -0.919060 -0.102006
vn -0.656510 -0.371471 -0.656510
vn -0.701458 -0.126151 -0.701458
vn -0.160990 -0.783005 -0.600821
vn -0.256751 -0.126151 -0.958209
vn 0.207932 -0.595456 -0.776013
vn 0.160990 0.783005 -0.600821
vn 0.256751 -0.126151 -0.958209
vn 0.102005 0.919061 -0.380687
vn 0.278683 -0.919060 -0.278682
vn 0.656510 0.371470 -0.656510
vn 0.568081 -0.595455 -0.568081
vn 0.278682 0.919060 -0.278682
vn 0.896809 0.371471 -0.240299
vn 0.776013 -0.595456 -0.207932
vn 0.600821 0.783005 -0.160990
vn 0.958209 -0.126150 -0.256751
vn 0.380687 0.919061 -0.102004
vn 0.776014 -0.595455 0.207932
vn 0.896809 -0.371470 0.240299
vn 0.278683 -0.919060 0.278684
vn 0.439831 -0.783005 0.439831
vn 0.656510 0.371470 0.656510
vn 0.568081 -0.595456 0.568081
vn 0.439831 0.783005 0.439831
vn 0.278682 0.919061 0.278682
vn 0.102005 -0.919060 0.380687
vn 0.240299 0.371470 0.896809
vn 0.160989 0.783005 0.600821
vn 0.256751 -0.126150 0.958209
vn -0.439832 -0.783005 0.439832
vn -0.656510 0.371470 0.656510
vn -0.568081 -0.595455 0.568081
vn -0.656510 -0.371470 0.656510
vn -0.439831 0.783005 0.439832
vn -0.278682 0.919061 0.278682
vn -0.958209 0.126150 0.256752
vn -0.896809 0.371470 0.240299
vn -0.776013 -0.595456 0.207933
vn -0.896809 -0.371470 0.240300
vn -0.958209 -0.126150 0.256752
usemtl blue
s off
f 7/1/1 19/2/1 20/3/1
f 2/1/2 14/2/2 15/3/2
f 6/1/3 18/2/3 19/3/3
f 1/1/4 13/2/4 14/3/4
f 10/1/5 22/2/5 23/3/5
f 5/1/6 17/2/6 18/3/6
f 10/4/7 9/1/7 21/2/7
f 5/4/8 4/1/8 16/2/8
f 8/1/9 20/2/9 21/3/9
f 4/4/10 3/1/10 15/2/10
f 23/4/11 22/1/11 33/2/11
f 17/1/12 28/2/12 29/3/12
f 21/1/13 32/2/13 33/3/13
f 17/4/14 16/1/14 27/2/14
f 20/1/15 31/2/15 32/3/15
f 15/1/16 26/2/16 27/3/16
f 19/1/17 30/2/17 31/3/17
f 15/4/18 14/1/18 25/2/18
f 18/1/19 29/2/19 30/3/19
f 14/4/20 13/1/20 24/2/20
f 34/4/21 33/1/21 44/2/21
f 28/1/22 39/2/22 40/3/22
f 33/4/23 32/1/23 43/2/23
f 28/4/24 27/1/24 38/2/24
f 31/1/25 42/2/25 43/3/25
f 26/1/26 37/2/26 38/3/26
f 30/1/27 41/2/27 42/3/27
f 26/4/28 25/1/28 36/2/28
f 30/4/29 29/1/29 40/2/29
f 24/1/30 35/2/30 36/3/30
f 44/1/31 55/2/31 56/3/31
f 40/4/32 39/1/32 50/2/32
f 44/4/33 43/1/33 54/2/33
f 38/1/34 49/2/34 50/3/34
f 42/1/35 53/2/35 54/3/35
f 37/1/36 48/2/36 49/3/36
f 42/4/37 41/1/37 52/2/37
f 37/4/38 36/1/38 47/2/38
f 40/1/39 51/2/39 52/3/39
f 36/4/40 35/1/40 46/2/40
f 56/4/41 55/1/41 67/2/41
f 51/4/42 50/1/42 62/2/42
f 54/1/43 66/2/43 67/3/43
f 49/1/44 61/2/44 62/3/44
f 54/4/45 53/1/45 65/2/45
f 48/1/46 60/2/46 61/3/46
f 52/1/47 64/2/47 65/3/47
f 47/1/48 59/2/48 60/3/48
f 51/1/49 63/2/49 64/3/49
f 47/4/50 46/1/50 58/2/50
f 67/1/51 78/2/51 79/3/51
f 62/1/52 73/2/52 74/3/52
f 66/1/53 77/2/53 78/3/53
f 61/1/54 72/2/54 73/3/54
f 65/1/55 76/2/55 77/3/55
f 60/1/56 71/2/56 72/3/56
f 64/1/57 75/2/57 76/3/57
f 59/1/58 70/2/58 71/3/58
f 63/1/59 74/2/59 75/3/59
f 59/4/60 58/1/60 69/2/60
f 79/4/61 78/1/61 89/2/61
f 73/1/62 84/2/62 85/3/62
f 77/1/63 88/2/63 89/3/63
f 72/1/64 83/2/64 84/3/64
f 76/1/65 87/2/65 88/3/65
f 71/1/66 82/2/66 83/3/66
f 75/1/67 86/2/67 87/3/67
f 71/4/68 70/1/68 81/2/68
f 74/1/69 85/2/69 86/3/69
f 69/1/70 80/2/70 81/3/70
f 89/1/71 100/2/71 101/3/71
f 84/1/72 95/2/72 96/3/72
f 88/1/73 99/2/73 100/3/73
f 83/1/74 94/2/74 95/3/74
f 88/4/75 87/1/75 98/2/75
f 82/1/76 93/2/76 94/3/76
f 86/1/77 97/2/77 98/3/77
f 82/4/78 81/1/78 92/2/78
f 85/1/79 96/2/79 97/3/79
f 81/4/80 80/1/80 91/2/80
f 100/1/81 111/2/81 112/3/81
f 95/1/82 106/2/82 107/3/82
f 99/1/83 110/2/83 111/3/83
f 94/1/84 105/2/84 106/3/84
f 99/4/85 98/1/85 109/2/85
f 94/4/86 93/1/86 104/2/86
f 97/1/87 108/2/87 109/3/87
f 92/1/88 103/2/88 104/3/88
f 97/4/89 96/1/89 107/2/89
f 92/4/90 91/1/90 102/2/90
f 111/1/91 122/2/91 123/3/91
f 106/1/92 117/2/92 118/3/92
f 110/1/93 121/2/93 122/3/93
f 105/1/94 116/2/94 117/3/94
f 109/1/95 120/2/95 121/3/95
f 104/1/96 115/2/96 116/3/96
f 108/1/97 119/2/97 120/3/97
f 103/1/98 114/2/98 115/3/98
f 107/1/99 118/2/99 119/3/99
f 103/4/100 102/1/100 113/2/100
f 122/1/101 133/2/101 134/3/101
f 117/1/102 128/2/102 129/3/102
f 121/1/103 132/2/103 133/3/103
f 116/1/104 127/2/104 128/3/104
f 120/1/105 131/2/105 132/3/105
f 115/1/106 126/2/106 127/3/106
f 119/1/107 130/2/107 131/3/107
f 114/1/108 125/2/108 126/3/108
f 118/1/109 129/2/109 130/3/109
f 114/4/110 113/1/110 124/2/110
f 12/4/111 11/1/111 23/2/111
f 1/4/112 57/1/112 13/2/112
f 13/4/113 57/1/113 24/2/113
f 12/4/114 23/1/114 34/2/114
f 24/4/115 57/1/115 35/2/115
f 12/4/116 34/1/116 45/2/116
f 35/4/117 57/1/117 46/2/117
f 12/4/118 45/1/118 56/2/118
f 46/4/119 57/1/119 58/2/119
f 12/4/120 56/1/120 68/2/120
f 58/4/121 57/1/121 69/2/121
f 12/4/122 68/1/122 79/2/122
f 69/4/123 57/1/123 80/2/123
f 12/4/124 79/1/124 90/2/124
f 80/4/125 57/1/125 91/2/125
f 12/4/126 90/1/126 101/2/126
f 91/4/127 57/1/127 102/2/127
f 12/4/128 101/1/128 112/2/128
f 102/4/129 57/1/129 113/2/129
f 12/4/130 112/1/130 123/2/130
f 113/4/131 57/1/131 124/2/131
f 12/4/132 123/1/132 134/2/132
f 134/4/133 133/1/133 10/2/133
f 128/1/134 5/2/134 6/3/134
f 124/4/135 57/1/135 1/2/135
f 132/1/136 9/2/136 10/3/136
f 127/1/137 4/2/137 5/3/137
f 132/4/138 131/1/138 8/2/138
f 126/1/139 3/2/139 4/3/139
f 130/1/140 7/2/140 8/3/140
f 125/1/141 2/2/141 3/3/141
f 12/4/142 134/1/142 11/2/142
f 129/1/143 6/2/143 7/3/143
f 124/1/144 1/2/144 2/3/144
f 8/4/145 7/1/145 20/3/145
f 3/4/146 2/1/146 15/3/146
f 7/4/147 6/1/147 19/3/147
f 2/4/4 1/1/4 14/3/4
f 11/4/148 10/1/148 23/3/148
f 6/4/6 5/1/6 18/3/6
f 22/3/7 10/4/7 21/2/7
f 17/3/8 5/4/8 16/2/8
f 9/4/9 8/1/9 21/3/9
f 16/3/10 4/4/10 15/2/10
f 34/3/11 23/4/11 33/2/11
f 18/4/12 17/1/12 29/3/12
f 22/4/13 21/1/13 33/3/13
f 28/3/14 17/4/14 27/2/14
f 21/4/15 20/1/15 32/3/15
f 16/4/16 15/1/16 27/3/16
f 20/4/149 19/1/149 31/3/149
f 26/3/18 15/4/18 25/2/18
f 19/4/150 18/1/150 30/3/150
f 25/3/20 14/4/20 24/2/20
f 45/3/21 34/4/21 44/2/21
f 29/4/22 28/1/22 40/3/22
f 44/3/151 33/4/151 43/2/151
f 39/3/24 28/4/24 38/2/24
f 32/4/25 31/1/25 43/3/25
f 27/4/26 26/1/26 38/3/26
f 31/4/27 30/1/27 42/3/27
f 37/3/28 26/4/28 36/2/28
f 41/3/152 30/4/152 40/2/152
f 25/4/30 24/1/30 36/3/30
f 45/4/31 44/1/31 56/3/31
f 51/3/32 40/4/32 50/2/32
f 55/3/33 44/4/33 54/2/33
f 39/4/34 38/1/34 50/3/34
f 43/4/153 42/1/153 54/3/153
f 38/4/36 37/1/36 49/3/36
f 53/3/37 42/4/37 52/2/37
f 48/3/154 37/4/154 47/2/154
f 41/4/155 40/1/155 52/3/155
f 47/3/156 36/4/156 46/2/156
f 68/3/157 56/4/157 67/2/157
f 63/3/42 51/4/42 62/2/42
f 55/4/43 54/1/43 67/3/43
f 50/4/158 49/1/158 62/3/158
f 66/3/159 54/4/159 65/2/159
f 49/4/46 48/1/46 61/3/46
f 53/4/47 52/1/47 65/3/47
f 48/4/48 47/1/48 60/3/48
f 52/4/49 51/1/49 64/3/49
f 59/3/160 47/4/160 58/2/160
f 68/4/51 67/1/51 79/3/51
f 63/4/52 62/1/52 74/3/52
f 67/4/53 66/1/53 78/3/53
f 62/4/161 61/1/161 73/3/161
f 66/4/162 65/1/162 77/3/162
f 61/4/56 60/1/56 72/3/56
f 65/4/57 64/1/57 76/3/57
f 60/4/163 59/1/163 71/3/163
f 64/4/164 63/1/164 75/3/164
f 70/3/165 59/4/165 69/2/165
f 90/3/61 79/4/61 89/2/61
f 74/4/62 73/1/62 85/3/62
f 78/4/63 77/1/63 89/3/63
f 73/4/64 72/1/64 84/3/64
f 77/4/166 76/1/166 88/3/166
f 72/4/66 71/1/66 83/3/66
f 76/4/167 75/1/167 87/3/167
f 82/3/68 71/4/68 81/2/68
f 75/4/69 74/1/69 86/3/69
f 70/4/70 69/1/70 81/3/70
f 90/4/168 89/1/168 101/3/168
f 85/4/72 84/1/72 96/3/72
f 89/4/169 88/1/169 100/3/169
f 84/4/170 83/1/170 95/3/170
f 99/3/171 88/4/171 98/2/171
f 83/4/76 82/1/76 94/3/76
f 87/4/77 86/1/77 98/3/77
f 93/3/172 82/4/172 92/2/172
f 86/4/79 85/1/79 97/3/79
f 92/3/173 81/4/173 91/2/173
f 101/4/174 100/1/174 112/3/174
f 96/4/82 95/1/82 107/3/82
f 100/4/83 99/1/83 111/3/83
f 95/4/175 94/1/175 106/3/175
f 110/3/85 99/4/85 109/2/85
f 105/3/86 94/4/86 104/2/86
f 98/4/87 97/1/87 109/3/87
f 93/4/176 92/1/176 104/3/176
f 108/3/177 97/4/177 107/2/177
f 103/3/90 92/4/90 102/2/90
f 112/4/91 111/1/91 123/3/91
f 107/4/92 106/1/92 118/3/92
f 111/4/93 110/1/93 122/3/93
f 106/4/94 105/1/94 117/3/94
f 110/4/95 109/1/95 121/3/95
f 105/4/96 104/1/96 116/3/96
f 109/4/97 108/1/97 120/3/97
f 104/4/98 103/1/98 115/3/98
f 108/4/99 107/1/99 119/3/99
f 114/3/100 103/4/100 113/2/100
f 123/4/101 122/1/101 134/3/101
f 118/4/102 117/1/102 129/3/102
f 122/4/178 121/1/178 133/3/178
f 117/4/179 116/1/179 128/3/179
f 121/4/180 120/1/180 132/3/180
f 116/4/106 115/1/106 127/3/106
f 120/4/181 119/1/181 131/3/181
f 115/4/182 114/1/182 126/3/182
f 119/4/109 118/1/109 130/3/109
f 125/3/183 114/4/183 124/2/183
f 11/3/133 134/4/133 10/2/133
f 129/4/184 128/1/184 6/3/184
f 133/4/136 132/1/136 10/3/136
f 128/4/185 127/1/185 5/3/185
f 9/3/186 132/4/186 8/2/186
f 127/4/139 126/1/139 4/3/139
f 131/4/187 130/1/187 8/3/187
f 126/4/141 125/1/141 3/3/141
f 130/4/188 129/1/188 7/3/188
f 125/4/144 124/1/144 2/3/144
