# Blender v2.70 (sub 0) OBJ File: 'arenaWall_rotated.blend'
# www.blender.org
mtllib arenaWall_rotated.mtl
o Cube
v 0.250032 -12.000000 50.000000
v -0.249968 -12.000000 50.000000
v -0.250032 -12.000000 -50.000000
v 0.249968 -12.000000 -50.000000
v 0.250032 12.000000 50.000000
v -0.249968 12.000000 50.000000
v -0.250032 12.000000 -50.000000
v 0.249968 12.000000 -50.000000
vt 6.703970 -5.703970
vt 6.703970 6.703970
vt -5.703970 6.703970
vt -5.703970 -5.703970
vn 0.000000 0.000000 1.000000
vn -1.000000 -0.000000 0.000001
vn 0.000000 0.000000 -1.000000
vn 1.000000 -0.000000 -0.000001
vn 0.000000 -1.000000 -0.000000
vn 0.000000 1.000000 0.000000
usemtl Material.001
s off
f 6/1/1 2/2/1 1/3/1
f 7/1/2 3/2/2 2/3/2
f 8/1/3 4/2/3 3/3/3
f 5/1/4 1/2/4 4/3/4
f 2/1/5 3/2/5 4/3/5
f 7/1/6 6/2/6 5/3/6
f 5/4/1 6/1/1 1/3/1
f 6/4/2 7/1/2 2/3/2
f 7/4/3 8/1/3 3/3/3
f 8/4/4 5/1/4 4/3/4
f 1/4/5 2/1/5 4/3/5
f 8/4/6 7/1/6 5/3/6
