# Blender v2.76 (sub 0) OBJ File: 'enemy.blend'
# www.blender.org
mtllib enemy.mtl
o Cube
v 1.000000 -1.000000 -1.000000
v 1.000000 -1.000000 1.000000
v -1.000000 -1.000000 1.000000
v -1.000000 -1.000000 -1.000000
v 1.000000 1.000000 -0.999999
v 0.999999 1.000000 1.000001
v -1.000000 1.000000 1.000000
v -1.000000 1.000000 -1.000000
vt 1.125890 0.296700
vt 0.872020 0.300822
vt 0.623536 0.311498
vt 0.625890 0.703300
vt 0.877252 0.692527
vt 1.123536 0.688502
vt 0.372020 0.699178
vt 0.123536 0.688502
vt 0.125890 0.296700
vt 0.377252 0.307473
vt 1.372020 0.699178
vn 0.000000 -1.000000 0.000000
vn 0.000000 1.000000 0.000000
vn 1.000000 0.000000 0.000000
vn -0.000000 0.000000 1.000000
vn -1.000000 -0.000000 -0.000000
vn 0.000000 0.000000 -1.000000
usemtl Material
s off
f 2/1/1 3/2/1 4/3/1
f 8/4/2 7/5/2 6/6/2
f 5/7/3 6/8/3 2/9/3
f 6/6/4 7/5/4 3/2/4
f 3/2/5 7/5/5 8/4/5
f 1/10/6 4/3/6 8/4/6
f 1/10/1 2/1/1 4/3/1
f 5/11/2 8/4/2 6/6/2
f 1/10/3 5/7/3 2/9/3
f 2/1/4 6/6/4 3/2/4
f 4/3/5 3/2/5 8/4/5
f 5/7/6 1/10/6 8/4/6
