# Blender v2.70 (sub 0) OBJ File: 'bullet.blend'
# www.blender.org
mtllib bullet.mtl
o Sphere
v 0.052524 -0.000000 0.048328
v 0.047092 -0.000000 0.093362
v 0.038450 -0.000000 0.132034
v 0.027188 -0.000000 0.161708
v 0.014074 0.000000 0.180361
v 0.000000 0.000000 0.186724
v -0.014074 0.000000 0.180361
v -0.027188 0.000000 0.161708
v -0.038450 0.000000 0.132034
v -0.047092 0.000000 0.093362
v -0.052524 0.000000 0.048328
v -0.054377 0.000000 0.000000
v 0.052524 0.007037 0.041853
v 0.047092 0.013594 0.080854
v 0.038450 0.019225 0.114344
v 0.027188 0.023546 0.140043
v 0.014074 0.026262 0.156198
v 0.000000 0.027188 0.161708
v -0.014074 0.026262 0.156198
v -0.027188 0.023546 0.140043
v -0.038450 0.019225 0.114345
v -0.047092 0.013594 0.080854
v -0.052524 0.007037 0.041853
v 0.052524 0.012188 0.024164
v 0.047092 0.023546 0.046681
v 0.038450 0.033299 0.066017
v 0.027188 0.040782 0.080854
v 0.014074 0.045487 0.090181
v 0.000000 0.047092 0.093362
v -0.014074 0.045487 0.090181
v -0.027188 0.040783 0.080854
v -0.038450 0.033299 0.066017
v -0.047092 0.023546 0.046681
v -0.052524 0.012188 0.024164
v 0.052524 0.014074 -0.000000
v 0.047092 0.027188 -0.000000
v 0.038450 0.038450 -0.000000
v 0.027188 0.047092 -0.000000
v 0.014074 0.052524 -0.000000
v -0.000000 0.054377 0.000000
v -0.014074 0.052524 0.000000
v -0.027188 0.047092 0.000000
v -0.038450 0.038450 0.000000
v -0.047092 0.027188 0.000000
v -0.052524 0.014074 0.000000
v 0.052524 0.012188 -0.024164
v 0.047091 0.023546 -0.046681
v 0.038450 0.033299 -0.066017
v 0.027188 0.040782 -0.080854
v 0.014074 0.045487 -0.090181
v -0.000000 0.047092 -0.093362
v -0.014074 0.045487 -0.090181
v -0.027188 0.040783 -0.080854
v -0.038450 0.033299 -0.066017
v -0.047092 0.023546 -0.046681
v -0.052524 0.012188 -0.024164
v 0.054377 -0.000000 0.000000
v 0.052524 0.007037 -0.041853
v 0.047091 0.013594 -0.080854
v 0.038450 0.019225 -0.114345
v 0.027188 0.023546 -0.140043
v 0.014074 0.026262 -0.156198
v -0.000000 0.027188 -0.161708
v -0.014074 0.026262 -0.156198
v -0.027188 0.023546 -0.140043
v -0.038450 0.019225 -0.114345
v -0.047092 0.013594 -0.080854
v -0.052524 0.007037 -0.041853
v 0.052524 -0.000000 -0.048328
v 0.047091 -0.000000 -0.093362
v 0.038450 -0.000000 -0.132034
v 0.027188 -0.000000 -0.161708
v 0.014074 -0.000000 -0.180361
v -0.000000 0.000000 -0.186724
v -0.014074 0.000000 -0.180361
v -0.027188 0.000000 -0.161708
v -0.038450 0.000000 -0.132034
v -0.047092 0.000000 -0.093362
v -0.052524 0.000000 -0.048328
v 0.052524 -0.007037 -0.041853
v 0.047091 -0.013594 -0.080854
v 0.038450 -0.019225 -0.114345
v 0.027188 -0.023546 -0.140043
v 0.014074 -0.026262 -0.156198
v -0.000000 -0.027188 -0.161708
v -0.014074 -0.026262 -0.156198
v -0.027188 -0.023546 -0.140043
v -0.038450 -0.019225 -0.114345
v -0.047092 -0.013594 -0.080854
v -0.052524 -0.007037 -0.041853
v 0.052524 -0.012188 -0.024164
v 0.047091 -0.023546 -0.046681
v 0.038450 -0.033299 -0.066017
v 0.027188 -0.040782 -0.080854
v 0.014074 -0.045487 -0.090181
v -0.000000 -0.047092 -0.093362
v -0.014074 -0.045487 -0.090181
v -0.027188 -0.040782 -0.080854
v -0.038450 -0.033299 -0.066017
v -0.047092 -0.023546 -0.046681
v -0.052524 -0.012188 -0.024164
v 0.052524 -0.014074 -0.000000
v 0.047091 -0.027188 -0.000000
v 0.038450 -0.038450 -0.000000
v 0.027188 -0.047092 -0.000000
v 0.014074 -0.052524 0.000000
v -0.000000 -0.054377 0.000000
v -0.014074 -0.052524 0.000000
v -0.027188 -0.047092 0.000000
v -0.038450 -0.038450 0.000000
v -0.047092 -0.027188 0.000000
v -0.052524 -0.014074 0.000000
v 0.052524 -0.012188 0.024164
v 0.047092 -0.023546 0.046681
v 0.038450 -0.033299 0.066017
v 0.027188 -0.040782 0.080854
v 0.014074 -0.045487 0.090181
v -0.000000 -0.047092 0.093362
v -0.014074 -0.045487 0.090181
v -0.027188 -0.040782 0.080854
v -0.038450 -0.033299 0.066017
v -0.047092 -0.023546 0.046681
v -0.052524 -0.012188 0.024164
v 0.052524 -0.007037 0.041853
v 0.047092 -0.013594 0.080854
v 0.038450 -0.019225 0.114344
v 0.027188 -0.023546 0.140043
v 0.014074 -0.026262 0.156198
v 0.000000 -0.027188 0.161708
v -0.014074 -0.026262 0.156198
v -0.027188 -0.023546 0.140043
v -0.038450 -0.019225 0.114345
v -0.047092 -0.013594 0.080854
v -0.052524 -0.007037 0.041853
vt 1.000000 0.000000
vt 1.000000 1.000000
vt 0.000000 1.000000
vt 0.000000 0.000000
vn -0.723054 0.467735 0.508347
vn 0.956859 0.196734 0.213815
vn -0.315670 0.642480 0.698264
vn 0.986831 0.109525 0.119036
vn -0.986830 0.109527 0.119037
vn 0.315673 0.642479 0.698263
vn -0.956858 0.196736 0.213817
vn 0.723056 0.467734 0.508345
vn -0.888766 0.310356 0.337303
vn 0.888767 0.310356 0.337303
vn -0.953574 0.289149 0.084205
vn 0.170151 0.946116 0.275522
vn -0.863130 0.484841 0.141193
vn 0.477365 0.843660 0.245685
vn -0.709352 0.676742 0.197077
vn 0.709353 0.676741 0.197076
vn -0.477364 0.843660 0.245686
vn 0.863131 0.484840 0.141192
vn -0.170149 0.946117 0.275523
vn 0.953574 0.289148 0.084203
vn -0.923467 0.382514 0.029848
vn 0.130138 0.988491 0.077132
vn -0.792459 0.608077 0.047449
vn 0.381693 0.921488 0.071904
vn -0.607598 0.791838 0.061788
vn 0.607599 0.791837 0.061787
vn -0.381692 0.921488 0.071905
vn 0.792461 0.608075 0.047448
vn -0.130137 0.988491 0.077133
vn 0.923468 0.382514 0.029847
vn -0.923468 0.382514 -0.029847
vn 0.130138 0.988491 -0.077133
vn -0.792459 0.608077 -0.047448
vn 0.381693 0.921488 -0.071905
vn -0.607598 0.791838 -0.061787
vn 0.607598 0.791837 -0.061788
vn -0.381692 0.921488 -0.071904
vn 0.792460 0.608075 -0.047449
vn -0.130137 0.988491 -0.077132
vn 0.923468 0.382513 -0.029848
vn -0.953573 0.289150 -0.084203
vn 0.170151 0.946116 -0.275523
vn -0.863130 0.484841 -0.141192
vn 0.477365 0.843659 -0.245686
vn -0.709352 0.676743 -0.197076
vn 0.709353 0.676741 -0.197077
vn -0.477365 0.843660 -0.245685
vn 0.863131 0.484840 -0.141193
vn -0.170150 0.946116 -0.275523
vn 0.953574 0.289148 -0.084205
vn -0.986830 0.109527 -0.119036
vn 0.315673 0.642479 -0.698263
vn -0.956858 0.196735 -0.213816
vn 0.723054 0.467735 -0.508347
vn -0.888766 0.310357 -0.337303
vn 0.888767 0.310355 -0.337303
vn -0.723055 0.467735 -0.508346
vn 0.956859 0.196733 -0.213817
vn -0.315672 0.642479 -0.698263
vn 0.986830 0.109525 -0.119037
vn -0.986831 -0.109526 -0.119036
vn 0.315671 -0.642480 -0.698263
vn -0.956859 -0.196734 -0.213816
vn 0.723053 -0.467736 -0.508347
vn -0.888767 -0.310355 -0.337302
vn 0.888767 -0.310356 -0.337303
vn -0.723056 -0.467734 -0.508346
vn 0.956858 -0.196735 -0.213817
vn -0.315672 -0.642479 -0.698263
vn 0.986830 -0.109528 -0.119037
vn -0.953574 -0.289148 -0.084204
vn 0.170150 -0.946116 -0.275523
vn -0.863131 -0.484840 -0.141192
vn 0.477363 -0.843660 -0.245686
vn -0.709353 -0.676741 -0.197076
vn 0.709352 -0.676742 -0.197077
vn -0.477365 -0.843659 -0.245685
vn 0.863131 -0.484840 -0.141193
vn -0.170151 -0.946116 -0.275522
vn 0.953573 -0.289149 -0.084205
vn -0.923468 -0.382513 -0.029847
vn 0.130137 -0.988491 -0.077133
vn -0.792460 -0.608076 -0.047448
vn 0.381692 -0.921488 -0.071905
vn -0.607599 -0.791837 -0.061787
vn 0.607597 -0.791838 -0.061788
vn -0.381694 -0.921488 -0.071904
vn 0.792459 -0.608076 -0.047449
vn -0.130138 -0.988491 -0.077133
vn 0.923468 -0.382513 -0.029848
vn -0.923468 -0.382513 0.029848
vn 0.130137 -0.988491 0.077133
vn -0.792460 -0.608076 0.047449
vn 0.381692 -0.921488 0.071904
vn -0.607599 -0.791837 0.061788
vn 0.607598 -0.791838 0.061787
vn -0.381694 -0.921488 0.071905
vn 0.792460 -0.608075 0.047448
vn -0.130138 -0.988491 0.077133
vn 0.923468 -0.382514 0.029847
vn -0.953574 -0.289147 0.084205
vn 0.170150 -0.946117 0.275522
vn -0.863131 -0.484840 0.141193
vn 0.477365 -0.843660 0.245685
vn -0.709352 -0.676742 0.197077
vn 0.709352 -0.676742 0.197076
vn -0.477365 -0.843659 0.245686
vn 0.863131 -0.484841 0.141192
vn -0.170151 -0.946116 0.275523
vn 0.953574 -0.289149 0.084203
vn -0.998646 0.035229 0.038288
vn 0.998646 0.035226 0.038287
vn 0.995000 0.095894 0.027925
vn -0.995000 0.095896 0.027927
vn 0.991393 0.130519 0.010184
vn -0.991393 0.130521 0.010185
vn 0.991393 0.130519 -0.010185
vn -0.991393 0.130521 -0.010184
vn 0.995000 0.095894 -0.027926
vn -0.995000 0.095896 -0.027925
vn 0.998646 0.035227 -0.038288
vn -0.998646 0.035230 -0.038287
vn 0.998646 -0.035229 -0.038288
vn -0.998646 -0.035230 -0.038287
vn 0.995000 -0.095896 -0.027926
vn -0.995000 -0.095893 -0.027926
vn 0.991393 -0.130520 -0.010185
vn -0.991394 -0.130519 -0.010184
vn 0.991393 -0.130520 0.010184
vn -0.991393 -0.130519 0.010185
vn 0.995000 -0.095896 0.027925
vn -0.995000 -0.095895 0.027927
vn -0.986830 -0.109526 0.119037
vn 0.315672 -0.642480 0.698263
vn 0.998646 -0.035229 0.038287
vn -0.956858 -0.196734 0.213817
vn 0.723055 -0.467735 0.508345
vn -0.888766 -0.310356 0.337303
vn 0.888766 -0.310357 0.337302
vn -0.723055 -0.467734 0.508346
vn 0.956858 -0.196735 0.213815
vn -0.998646 -0.035228 0.038288
vn -0.315671 -0.642480 0.698263
vn 0.986830 -0.109528 0.119036
vn 0.956859 0.196735 0.213815
vn 0.986830 0.109526 0.119036
vn -0.956858 0.196735 0.213817
vn 0.723056 0.467734 0.508346
vn 0.888767 0.310355 0.337302
vn 0.477365 0.843659 0.245685
vn 0.863132 0.484839 0.141192
vn -0.170150 0.946116 0.275523
vn -0.923468 0.382514 0.029848
vn -0.607597 0.791838 0.061788
vn 0.792460 0.608075 0.047448
vn 0.923468 0.382513 0.029847
vn -0.923467 0.382515 -0.029847
vn -0.792459 0.608076 -0.047448
vn -0.607597 0.791838 -0.061787
vn 0.607599 0.791837 -0.061788
vn -0.953574 0.289149 -0.084204
vn 0.709353 0.676742 -0.197077
vn 0.863131 0.484839 -0.141193
vn -0.170150 0.946117 -0.275523
vn 0.953574 0.289147 -0.084205
vn -0.986830 0.109529 -0.119036
vn 0.315671 0.642479 -0.698264
vn 0.723055 0.467734 -0.508347
vn -0.888767 0.310356 -0.337302
vn -0.723054 0.467736 -0.508346
vn 0.956858 0.196734 -0.213817
vn 0.986830 0.109526 -0.119037
vn -0.986830 -0.109528 -0.119036
vn 0.315672 -0.642479 -0.698263
vn 0.723054 -0.467735 -0.508347
vn 0.888766 -0.310356 -0.337303
vn -0.723055 -0.467734 -0.508346
vn 0.986830 -0.109527 -0.119037
vn -0.953575 -0.289145 -0.084204
vn 0.170149 -0.946117 -0.275523
vn 0.477364 -0.843660 -0.245686
vn 0.709352 -0.676743 -0.197077
vn 0.953574 -0.289148 -0.084205
vn -0.923467 -0.382515 -0.029847
vn -0.792459 -0.608076 -0.047448
vn -0.381693 -0.921488 -0.071904
vn -0.607598 -0.791838 0.061788
vn 0.792459 -0.608076 0.047448
vn 0.923468 -0.382513 0.029847
vn 0.170150 -0.946116 0.275523
vn 0.477364 -0.843660 0.245685
vn -0.709353 -0.676742 0.197077
vn -0.477366 -0.843659 0.245686
vn 0.863131 -0.484840 0.141192
vn -0.170150 -0.946117 0.275523
vn 0.315673 -0.642480 0.698262
vn -0.888767 -0.310355 0.337303
vn 0.956858 -0.196736 0.213815
vn -0.315671 -0.642479 0.698264
usemtl blue
s off
f 7/1/1 19/2/1 20/3/1
f 3/4/2 2/1/2 14/2/2
f 6/1/3 18/2/3 19/3/3
f 2/4/4 1/1/4 13/2/4
f 10/1/5 22/2/5 23/3/5
f 6/4/6 5/1/6 17/2/6
f 9/1/7 21/2/7 22/3/7
f 5/4/8 4/1/8 16/2/8
f 8/1/9 20/2/9 21/3/9
f 4/4/10 3/1/10 15/2/10
f 22/1/11 33/2/11 34/3/11
f 18/4/12 17/1/12 28/2/12
f 21/1/13 32/2/13 33/3/13
f 17/4/14 16/1/14 27/2/14
f 20/1/15 31/2/15 32/3/15
f 16/4/16 15/1/16 26/2/16
f 19/1/17 30/2/17 31/3/17
f 15/4/18 14/1/18 25/2/18
f 18/1/19 29/2/19 30/3/19
f 14/4/20 13/1/20 24/2/20
f 33/1/21 44/2/21 45/3/21
f 29/4/22 28/1/22 39/2/22
f 32/1/23 43/2/23 44/3/23
f 28/4/24 27/1/24 38/2/24
f 31/1/25 42/2/25 43/3/25
f 27/4/26 26/1/26 37/2/26
f 30/1/27 41/2/27 42/3/27
f 26/4/28 25/1/28 36/2/28
f 29/1/29 40/2/29 41/3/29
f 25/4/30 24/1/30 35/2/30
f 45/4/31 44/1/31 55/2/31
f 39/1/32 50/2/32 51/3/32
f 44/4/33 43/1/33 54/2/33
f 38/1/34 49/2/34 50/3/34
f 43/4/35 42/1/35 53/2/35
f 37/1/36 48/2/36 49/3/36
f 42/4/37 41/1/37 52/2/37
f 36/1/38 47/2/38 48/3/38
f 41/4/39 40/1/39 51/2/39
f 35/1/40 46/2/40 47/3/40
f 56/4/41 55/1/41 67/2/41
f 50/1/42 62/2/42 63/3/42
f 55/4/43 54/1/43 66/2/43
f 49/1/44 61/2/44 62/3/44
f 54/4/45 53/1/45 65/2/45
f 48/1/46 60/2/46 61/3/46
f 53/4/47 52/1/47 64/2/47
f 47/1/48 59/2/48 60/3/48
f 52/4/49 51/1/49 63/2/49
f 46/1/50 58/2/50 59/3/50
f 68/4/51 67/1/51 78/2/51
f 62/1/52 73/2/52 74/3/52
f 67/4/53 66/1/53 77/2/53
f 61/1/54 72/2/54 73/3/54
f 66/4/55 65/1/55 76/2/55
f 60/1/56 71/2/56 72/3/56
f 65/4/57 64/1/57 75/2/57
f 59/1/58 70/2/58 71/3/58
f 64/4/59 63/1/59 74/2/59
f 58/1/60 69/2/60 70/3/60
f 78/1/61 89/2/61 90/3/61
f 74/4/62 73/1/62 84/2/62
f 77/1/63 88/2/63 89/3/63
f 73/4/64 72/1/64 83/2/64
f 76/1/65 87/2/65 88/3/65
f 72/4/66 71/1/66 82/2/66
f 75/1/67 86/2/67 87/3/67
f 71/4/68 70/1/68 81/2/68
f 74/1/69 85/2/69 86/3/69
f 70/4/70 69/1/70 80/2/70
f 89/1/71 100/2/71 101/3/71
f 85/4/72 84/1/72 95/2/72
f 88/1/73 99/2/73 100/3/73
f 84/4/74 83/1/74 94/2/74
f 87/1/75 98/2/75 99/3/75
f 83/4/76 82/1/76 93/2/76
f 86/1/77 97/2/77 98/3/77
f 82/4/78 81/1/78 92/2/78
f 85/1/79 96/2/79 97/3/79
f 81/4/80 80/1/80 91/2/80
f 100/1/81 111/2/81 112/3/81
f 96/4/82 95/1/82 106/2/82
f 99/1/83 110/2/83 111/3/83
f 95/4/84 94/1/84 105/2/84
f 98/1/85 109/2/85 110/3/85
f 94/4/86 93/1/86 104/2/86
f 97/1/87 108/2/87 109/3/87
f 93/4/88 92/1/88 103/2/88
f 96/1/89 107/2/89 108/3/89
f 92/4/90 91/1/90 102/2/90
f 112/4/91 111/1/91 122/2/91
f 106/1/92 117/2/92 118/3/92
f 111/4/93 110/1/93 121/2/93
f 105/1/94 116/2/94 117/3/94
f 110/4/95 109/1/95 120/2/95
f 104/1/96 115/2/96 116/3/96
f 109/4/97 108/1/97 119/2/97
f 103/1/98 114/2/98 115/3/98
f 108/4/99 107/1/99 118/2/99
f 102/1/100 113/2/100 114/3/100
f 123/4/101 122/1/101 133/2/101
f 117/1/102 128/2/102 129/3/102
f 122/4/103 121/1/103 132/2/103
f 116/1/104 127/2/104 128/3/104
f 121/4/105 120/1/105 131/2/105
f 115/1/106 126/2/106 127/3/106
f 120/4/107 119/1/107 130/2/107
f 114/1/108 125/2/108 126/3/108
f 119/4/109 118/1/109 129/2/109
f 113/1/110 124/2/110 125/3/110
f 12/4/111 11/1/111 23/2/111
f 1/4/112 57/1/112 13/2/112
f 13/4/113 57/1/113 24/2/113
f 12/4/114 23/1/114 34/2/114
f 24/4/115 57/1/115 35/2/115
f 12/4/116 34/1/116 45/2/116
f 35/4/117 57/1/117 46/2/117
f 12/4/118 45/1/118 56/2/118
f 46/4/119 57/1/119 58/2/119
f 12/4/120 56/1/120 68/2/120
f 58/4/121 57/1/121 69/2/121
f 12/4/122 68/1/122 79/2/122
f 69/4/123 57/1/123 80/2/123
f 12/4/124 79/1/124 90/2/124
f 80/4/125 57/1/125 91/2/125
f 12/4/126 90/1/126 101/2/126
f 91/4/127 57/1/127 102/2/127
f 12/4/128 101/1/128 112/2/128
f 102/4/129 57/1/129 113/2/129
f 12/4/130 112/1/130 123/2/130
f 113/4/131 57/1/131 124/2/131
f 12/4/132 123/1/132 134/2/132
f 134/4/133 133/1/133 10/2/133
f 128/1/134 5/2/134 6/3/134
f 124/4/135 57/1/135 1/2/135
f 133/4/136 132/1/136 9/2/136
f 127/1/137 4/2/137 5/3/137
f 132/4/138 131/1/138 8/2/138
f 126/1/139 3/2/139 4/3/139
f 131/4/140 130/1/140 7/2/140
f 125/1/141 2/2/141 3/3/141
f 12/4/142 134/1/142 11/2/142
f 130/4/143 129/1/143 6/2/143
f 124/1/144 1/2/144 2/3/144
f 8/4/1 7/1/1 20/3/1
f 15/3/145 3/4/145 14/2/145
f 7/4/3 6/1/3 19/3/3
f 14/3/146 2/4/146 13/2/146
f 11/4/5 10/1/5 23/3/5
f 18/3/6 6/4/6 17/2/6
f 10/4/147 9/1/147 22/3/147
f 17/3/148 5/4/148 16/2/148
f 9/4/9 8/1/9 21/3/9
f 16/3/149 4/4/149 15/2/149
f 23/4/11 22/1/11 34/3/11
f 29/3/12 18/4/12 28/2/12
f 22/4/13 21/1/13 33/3/13
f 28/3/150 17/4/150 27/2/150
f 21/4/15 20/1/15 32/3/15
f 27/3/16 16/4/16 26/2/16
f 20/4/17 19/1/17 31/3/17
f 26/3/151 15/4/151 25/2/151
f 19/4/152 18/1/152 30/3/152
f 25/3/20 14/4/20 24/2/20
f 34/4/153 33/1/153 45/3/153
f 40/3/22 29/4/22 39/2/22
f 33/4/23 32/1/23 44/3/23
f 39/3/24 28/4/24 38/2/24
f 32/4/154 31/1/154 43/3/154
f 38/3/26 27/4/26 37/2/26
f 31/4/27 30/1/27 42/3/27
f 37/3/155 26/4/155 36/2/155
f 30/4/29 29/1/29 41/3/29
f 36/3/156 25/4/156 35/2/156
f 56/3/157 45/4/157 55/2/157
f 40/4/32 39/1/32 51/3/32
f 55/3/158 44/4/158 54/2/158
f 39/4/34 38/1/34 50/3/34
f 54/3/159 43/4/159 53/2/159
f 38/4/160 37/1/160 49/3/160
f 53/3/37 42/4/37 52/2/37
f 37/4/38 36/1/38 48/3/38
f 52/3/39 41/4/39 51/2/39
f 36/4/40 35/1/40 47/3/40
f 68/3/161 56/4/161 67/2/161
f 51/4/42 50/1/42 63/3/42
f 67/3/43 55/4/43 66/2/43
f 50/4/44 49/1/44 62/3/44
f 66/3/45 54/4/45 65/2/45
f 49/4/162 48/1/162 61/3/162
f 65/3/47 53/4/47 64/2/47
f 48/4/163 47/1/163 60/3/163
f 64/3/164 52/4/164 63/2/164
f 47/4/165 46/1/165 59/3/165
f 79/3/166 68/4/166 78/2/166
f 63/4/167 62/1/167 74/3/167
f 78/3/53 67/4/53 77/2/53
f 62/4/168 61/1/168 73/3/168
f 77/3/169 66/4/169 76/2/169
f 61/4/56 60/1/56 72/3/56
f 76/3/170 65/4/170 75/2/170
f 60/4/171 59/1/171 71/3/171
f 75/3/59 64/4/59 74/2/59
f 59/4/172 58/1/172 70/3/172
f 79/4/173 78/1/173 90/3/173
f 85/3/174 74/4/174 84/2/174
f 78/4/63 77/1/63 89/3/63
f 84/3/175 73/4/175 83/2/175
f 77/4/65 76/1/65 88/3/65
f 83/3/176 72/4/176 82/2/176
f 76/4/177 75/1/177 87/3/177
f 82/3/68 71/4/68 81/2/68
f 75/4/69 74/1/69 86/3/69
f 81/3/178 70/4/178 80/2/178
f 90/4/179 89/1/179 101/3/179
f 96/3/180 85/4/180 95/2/180
f 89/4/73 88/1/73 100/3/73
f 95/3/181 84/4/181 94/2/181
f 88/4/75 87/1/75 99/3/75
f 94/3/182 83/4/182 93/2/182
f 87/4/77 86/1/77 98/3/77
f 93/3/78 82/4/78 92/2/78
f 86/4/79 85/1/79 97/3/79
f 92/3/183 81/4/183 91/2/183
f 101/4/184 100/1/184 112/3/184
f 107/3/82 96/4/82 106/2/82
f 100/4/185 99/1/185 111/3/185
f 106/3/84 95/4/84 105/2/84
f 99/4/85 98/1/85 110/3/85
f 105/3/86 94/4/86 104/2/86
f 98/4/186 97/1/186 109/3/186
f 104/3/88 93/4/88 103/2/88
f 97/4/89 96/1/89 108/3/89
f 103/3/90 92/4/90 102/2/90
f 123/3/91 112/4/91 122/2/91
f 107/4/92 106/1/92 118/3/92
f 122/3/93 111/4/93 121/2/93
f 106/4/94 105/1/94 117/3/94
f 121/3/187 110/4/187 120/2/187
f 105/4/96 104/1/96 116/3/96
f 120/3/97 109/4/97 119/2/97
f 104/4/188 103/1/188 115/3/188
f 119/3/99 108/4/99 118/2/99
f 103/4/189 102/1/189 114/3/189
f 134/3/101 123/4/101 133/2/101
f 118/4/190 117/1/190 129/3/190
f 133/3/103 122/4/103 132/2/103
f 117/4/191 116/1/191 128/3/191
f 132/3/192 121/4/192 131/2/192
f 116/4/106 115/1/106 127/3/106
f 131/3/193 120/4/193 130/2/193
f 115/4/194 114/1/194 126/3/194
f 130/3/195 119/4/195 129/2/195
f 114/4/110 113/1/110 125/3/110
f 11/3/133 134/4/133 10/2/133
f 129/4/196 128/1/196 6/3/196
f 10/3/136 133/4/136 9/2/136
f 128/4/137 127/1/137 5/3/137
f 9/3/197 132/4/197 8/2/197
f 127/4/139 126/1/139 4/3/139
f 8/3/140 131/4/140 7/2/140
f 126/4/198 125/1/198 3/3/198
f 7/3/199 130/4/199 6/2/199
f 125/4/144 124/1/144 2/3/144
