# Blender v2.70 (sub 0) OBJ File: 'Player_4by3ratio.blend'
# www.blender.org
mtllib Player_4by3ratio.mtl
o Cylinder.001_Cylinder.002
v -0.627843 0.000000 0.921162
v 1.372324 -0.000000 0.933140
v -0.627843 -0.030170 0.927163
v 1.372324 -0.025587 0.938229
v -0.627843 -0.055746 0.944253
v 1.372324 -0.047278 0.952723
v -0.627843 -0.072836 0.969830
v 1.372324 -0.061771 0.974414
v -0.627843 -0.078838 1.000000
v 1.372324 -0.066861 1.000000
v -0.627843 -0.072836 1.030170
v 1.372324 -0.061771 1.025586
v -0.627843 -0.055746 1.055747
v 1.372324 -0.047278 1.047277
v -0.627843 -0.030170 1.072837
v 1.372324 -0.025587 1.061771
v -0.627843 0.000000 1.078838
v 1.372324 -0.000000 1.066860
v -0.627843 0.030170 1.072837
v 1.372324 0.025586 1.061771
v -0.627843 0.055747 1.055747
v 1.372324 0.047277 1.047277
v -0.627843 0.072837 1.030170
v 1.372324 0.061770 1.025586
v -0.627843 0.078838 1.000000
v 1.372324 0.066860 1.000000
v -0.627843 0.072837 0.969830
v 1.372324 0.061770 0.974414
v -0.627843 0.055747 0.944253
v 1.372324 0.047277 0.952723
v -0.627843 0.030170 0.927163
v 1.372324 0.025586 0.938229
v 1.437978 -0.000001 0.878303
v 1.437978 -0.046572 0.887567
v 1.437978 -0.086054 0.913947
v 1.437978 -0.112434 0.953429
v 1.437978 -0.121698 1.000000
v 1.437978 -0.112434 1.046571
v 1.437978 -0.086054 1.086053
v 1.437978 -0.046572 1.112433
v 1.437978 -0.000001 1.121697
v 1.437978 0.046571 1.112434
v 1.437978 0.086052 1.086053
v 1.437978 0.112433 1.046571
v 1.437978 0.121696 1.000000
v 1.437978 0.112433 0.953429
v 1.437978 0.086052 0.913947
v 1.437978 0.046571 0.887566
v 1.728319 -0.000001 0.914264
v 1.728319 -0.032811 0.920790
v 1.728319 -0.060626 0.939375
v 1.728319 -0.079211 0.967190
v 1.728319 -0.085737 1.000000
v 1.728319 -0.079211 1.032810
v 1.728319 -0.060626 1.060625
v 1.728319 -0.032811 1.079210
v 1.728319 -0.000001 1.085736
v 1.728319 0.032809 1.079210
v 1.728319 0.060624 1.060625
v 1.728319 0.079209 1.032810
v 1.728319 0.085735 1.000000
v 1.728319 0.079209 0.967190
v 1.728319 0.060624 0.939375
v 1.728319 0.032809 0.920790
vt 0.000000 0.000000
vt 1.000000 0.000000
vt 1.000000 1.000000
vt 0.000000 1.000000
vt 0.308659 0.961940
vt 0.961940 0.308658
vt 0.038060 0.308658
vt 0.961940 0.691342
vt 0.691342 0.961940
vt 0.853553 0.853553
vt 0.500000 1.000000
vt 1.000000 0.500000
vt 0.853553 0.146447
vt 0.691342 0.038060
vt 0.500000 0.000000
vt 0.146447 0.146446
vt 0.000000 0.500000
vt 0.038060 0.691342
vt 0.146447 0.853554
vt 0.308658 0.038060
vn 0.005873 -0.195088 -0.980768
vn 0.005873 -0.555559 -0.831456
vn 0.005873 -0.831456 -0.555560
vn 0.005873 -0.980768 -0.195087
vn 0.005873 -0.980768 0.195087
vn 0.005873 -0.831455 0.555561
vn 0.005873 -0.555561 0.831455
vn 0.005873 -0.195086 0.980769
vn 0.005873 0.195086 0.980769
vn 0.005874 0.555561 0.831455
vn 0.005874 0.831455 0.555561
vn 0.005874 0.980768 0.195087
vn 0.005874 0.980768 -0.195088
vn 0.005874 0.831455 -0.555560
vn -0.633706 -0.643203 -0.429774
vn 0.005873 0.195086 -0.980769
vn 0.005874 0.555561 -0.831455
vn -1.000000 0.000001 0.000000
vn 0.120591 -0.193667 -0.973628
vn -0.633703 0.429776 -0.643205
vn -0.633709 -0.429773 0.643202
vn -0.633703 0.643205 0.429776
vn -0.633704 0.429775 0.643205
vn -0.633706 -0.429774 -0.643203
vn -0.633704 -0.150918 -0.758711
vn -0.633702 0.643206 -0.429776
vn -0.633706 -0.643204 0.429774
vn -0.633703 0.758713 -0.150917
vn -0.633706 -0.758710 0.150917
vn -0.633705 0.150918 0.758711
vn -0.633706 -0.150912 0.758711
vn -0.633702 0.758713 0.150917
vn -0.633707 -0.758709 -0.150917
vn -0.633704 0.150918 -0.758711
vn 1.000000 -0.000001 0.000000
vn 0.120592 0.973628 -0.193667
vn 0.120592 0.193665 0.973628
vn 0.120590 -0.973628 0.193667
vn 0.120591 -0.825401 0.551517
vn 0.120591 -0.551516 -0.825401
vn 0.120592 0.825401 -0.551516
vn 0.120592 0.551517 0.825401
vn 0.120592 0.825401 0.551516
vn 0.120591 -0.551515 0.825402
vn 0.120591 -0.825402 -0.551516
vn 0.120592 0.551516 -0.825402
vn 0.120591 0.193666 -0.973628
vn 0.120592 0.973628 0.193666
vn 0.120590 -0.193666 0.973628
vn 0.120591 -0.973628 -0.193667
vn 0.005873 -0.195087 -0.980768
vn 0.005873 -0.555561 -0.831455
vn 0.005873 -0.831455 -0.555561
vn 0.005873 -0.831456 0.555560
vn 0.005873 -0.195085 0.980769
vn 0.005873 0.195085 0.980769
vn 0.005874 0.831456 0.555560
vn 0.005874 0.980768 -0.195087
vn 0.005874 0.831455 -0.555561
vn 0.005873 0.195087 -0.980768
vn 0.005873 0.555561 -0.831455
vn -1.000000 0.000001 -0.000005
vn -1.000000 0.000002 -0.000000
vn -1.000000 0.000003 0.000000
vn -1.000000 0.000000 -0.000003
vn -1.000000 0.000003 0.000001
vn -1.000000 -0.000005 0.000000
vn -1.000000 0.000002 -0.000001
vn -1.000000 0.000002 0.000002
vn 0.120591 -0.193666 -0.973628
vn -0.633704 0.429775 -0.643205
vn -1.000000 0.000000 -0.000005
vn -0.633705 -0.429774 0.643204
vn -0.633702 0.643206 0.429776
vn -0.633704 0.429776 0.643205
vn -0.633707 -0.429773 -0.643204
vn -0.633706 -0.150914 -0.758711
vn -0.633703 0.643204 -0.429777
vn -0.633709 -0.643200 0.429775
vn -0.633701 0.758714 -0.150917
vn -0.633708 -0.758708 0.150917
vn -0.633705 0.150916 0.758711
vn -0.633706 -0.150917 0.758710
vn -0.633702 0.758713 0.150918
vn -0.633706 -0.758710 -0.150917
vn -0.633704 0.150919 -0.758711
vn 1.000000 0.000001 0.000000
vn 1.000000 0.000005 0.000008
vn 1.000000 0.000002 0.000000
vn 1.000000 -0.000011 0.000000
vn 1.000000 -0.000013 -0.000008
vn 1.000000 -0.000004 0.000000
vn 1.000000 0.000015 0.000000
vn 1.000000 0.000007 0.000000
vn 1.000000 -0.000002 -0.000002
vn 1.000000 -0.000003 0.000000
vn 0.120591 0.193667 0.973628
vn 1.000000 0.000001 0.000001
vn 0.120591 -0.825402 0.551516
vn 0.120591 -0.551515 -0.825402
vn 0.120592 0.551516 0.825401
vn 0.120591 0.825401 0.551517
vn 0.120590 -0.551517 0.825401
vn 0.120592 0.551516 -0.825401
vn 0.120592 0.193664 -0.973628
vn 0.120591 -0.193669 0.973627
vn 0.120590 -0.973628 -0.193667
usemtl Material.005
s off
f 1/1/1 2/2/1 4/3/1
f 4/2/2 6/3/2 5/4/2
f 5/1/3 6/2/3 8/3/3
f 7/1/4 8/2/4 10/3/4
f 10/2/5 12/3/5 11/4/5
f 11/1/6 12/2/6 14/3/6
f 14/2/7 16/3/7 15/4/7
f 16/2/8 18/3/8 17/4/8
f 17/1/9 18/2/9 20/3/9
f 20/2/10 22/3/10 21/4/10
f 22/2/11 24/3/11 23/4/11
f 24/2/12 26/3/12 25/4/12
f 25/1/13 26/2/13 28/3/13
f 27/1/14 28/2/14 30/3/14
f 6/2/15 35/3/15 36/4/15
f 32/2/16 2/3/16 1/4/16
f 30/2/17 32/3/17 31/4/17
f 31/5/18 11/6/18 23/7/18
f 33/2/19 49/3/19 50/4/19
f 30/2/20 47/3/20 48/4/20
f 16/1/21 14/2/21 39/3/21
f 24/1/22 22/2/22 43/3/22
f 22/1/23 20/2/23 42/3/23
f 4/2/24 34/3/24 35/4/24
f 2/2/25 33/3/25 34/4/25
f 28/2/26 46/3/26 47/4/26
f 12/2/27 38/3/27 39/4/27
f 26/2/28 45/3/28 46/4/28
f 12/1/29 10/2/29 37/3/29
f 20/1/30 18/2/30 41/3/30
f 18/1/31 16/2/31 40/3/31
f 24/2/32 44/3/32 45/4/32
f 8/2/33 36/3/33 37/4/33
f 32/2/34 48/3/34 33/4/34
f 51/5/35 63/8/35 55/7/35
f 45/2/36 61/3/36 62/4/36
f 41/2/37 57/3/37 58/4/37
f 38/1/38 37/2/38 53/3/38
f 38/2/39 54/3/39 55/4/39
f 34/2/40 50/3/40 51/4/40
f 46/2/41 62/3/41 63/4/41
f 42/2/42 58/3/42 59/4/42
f 44/1/43 43/2/43 59/3/43
f 40/1/44 39/2/44 55/3/44
f 35/2/45 51/3/45 52/4/45
f 48/1/46 47/2/46 63/3/46
f 33/1/47 48/2/47 64/3/47
f 45/1/48 44/2/48 60/3/48
f 40/2/49 56/3/49 57/4/49
f 36/2/50 52/3/50 53/4/50
f 3/4/51 1/1/51 4/3/51
f 3/1/52 4/2/52 5/4/52
f 7/4/53 5/1/53 8/3/53
f 9/4/4 7/1/4 10/3/4
f 9/1/5 10/2/5 11/4/5
f 13/4/54 11/1/54 14/3/54
f 13/1/7 14/2/7 15/4/7
f 15/1/55 16/2/55 17/4/55
f 19/4/56 17/1/56 20/3/56
f 19/1/10 20/2/10 21/4/10
f 21/1/57 22/2/57 23/4/57
f 23/1/12 24/2/12 25/4/12
f 27/4/58 25/1/58 28/3/58
f 29/4/59 27/1/59 30/3/59
f 8/1/15 6/2/15 36/4/15
f 31/1/60 32/2/60 1/4/60
f 29/1/61 30/2/61 31/4/61
f 3/9/62 5/10/62 1/11/62
f 11/6/63 31/5/63 1/11/63
f 7/8/64 9/12/64 11/6/64
f 11/6/65 13/13/65 15/14/65
f 11/6/18 17/15/18 23/7/18
f 23/7/66 17/15/66 21/16/66
f 23/7/67 25/17/67 27/18/67
f 31/5/68 23/7/68 29/19/68
f 5/10/63 11/6/63 1/11/63
f 15/14/69 17/15/69 11/6/69
f 34/1/70 33/2/70 50/4/70
f 32/1/71 30/2/71 48/4/71
f 5/10/63 7/8/63 11/6/63
f 17/15/72 19/20/72 21/16/72
f 23/7/64 27/18/64 29/19/64
f 40/4/73 16/1/73 39/3/73
f 44/4/74 24/1/74 43/3/74
f 43/4/75 22/1/75 42/3/75
f 6/1/76 4/2/76 35/4/76
f 4/1/77 2/2/77 34/4/77
f 30/1/78 28/2/78 47/4/78
f 14/1/79 12/2/79 39/4/79
f 28/1/80 26/2/80 46/4/80
f 38/4/81 12/1/81 37/3/81
f 42/4/82 20/1/82 41/3/82
f 41/4/83 18/1/83 40/3/83
f 26/1/84 24/2/84 45/4/84
f 10/1/85 8/2/85 37/4/85
f 2/1/86 32/2/86 33/4/86
f 51/5/87 50/11/87 49/9/87
f 49/9/88 64/10/88 63/8/88
f 63/8/89 62/12/89 61/6/89
f 61/6/90 60/13/90 59/14/90
f 59/14/91 58/15/91 57/20/91
f 57/20/92 56/16/92 55/7/92
f 55/7/93 54/17/93 53/18/93
f 53/18/94 52/19/94 51/5/94
f 51/5/95 49/9/95 63/8/95
f 63/8/35 61/6/35 59/14/35
f 46/1/36 45/2/36 62/4/36
f 55/7/87 53/18/87 51/5/87
f 59/14/96 57/20/96 63/8/96
f 42/1/97 41/2/97 58/4/97
f 63/8/98 57/20/98 55/7/98
f 54/4/38 38/1/38 53/3/38
f 39/1/99 38/2/99 55/4/99
f 35/1/100 34/2/100 51/4/100
f 47/1/41 46/2/41 63/4/41
f 43/1/101 42/2/101 59/4/101
f 60/4/102 44/1/102 59/3/102
f 56/4/103 40/1/103 55/3/103
f 36/1/45 35/2/45 52/4/45
f 64/4/104 48/1/104 63/3/104
f 49/4/105 33/1/105 64/3/105
f 61/4/48 45/1/48 60/3/48
f 41/1/106 40/2/106 57/4/106
f 37/1/107 36/2/107 53/4/107
o Cylinder_Cylinder.001
v -0.627843 0.000000 -1.078838
v 1.372324 -0.000000 -1.066860
v -0.627843 -0.030170 -1.072837
v 1.372324 -0.025587 -1.061771
v -0.627843 -0.055746 -1.055747
v 1.372324 -0.047278 -1.047277
v -0.627843 -0.072836 -1.030170
v 1.372324 -0.061771 -1.025586
v -0.627843 -0.078838 -1.000000
v 1.372324 -0.066861 -1.000000
v -0.627843 -0.072836 -0.969830
v 1.372324 -0.061771 -0.974414
v -0.627843 -0.055746 -0.944253
v 1.372324 -0.047278 -0.952723
v -0.627843 -0.030170 -0.927163
v 1.372324 -0.025587 -0.938229
v -0.627843 0.000000 -0.921162
v 1.372324 -0.000000 -0.933140
v -0.627843 0.030170 -0.927163
v 1.372324 0.025586 -0.938229
v -0.627843 0.055747 -0.944253
v 1.372324 0.047277 -0.952723
v -0.627843 0.072837 -0.969830
v 1.372324 0.061770 -0.974414
v -0.627843 0.078838 -1.000000
v 1.372324 0.066860 -1.000000
v -0.627843 0.072837 -1.030170
v 1.372324 0.061770 -1.025586
v -0.627843 0.055747 -1.055747
v 1.372324 0.047277 -1.047277
v -0.627843 0.030170 -1.072837
v 1.372324 0.025586 -1.061771
v 1.437978 -0.000001 -1.121697
v 1.437978 -0.046572 -1.112433
v 1.437978 -0.086054 -1.086053
v 1.437978 -0.112434 -1.046571
v 1.437978 -0.121698 -1.000000
v 1.437978 -0.112434 -0.953429
v 1.437978 -0.086054 -0.913947
v 1.437978 -0.046572 -0.887567
v 1.437978 -0.000001 -0.878303
v 1.437978 0.046571 -0.887567
v 1.437978 0.086052 -0.913947
v 1.437978 0.112433 -0.953429
v 1.437978 0.121696 -1.000000
v 1.437978 0.112433 -1.046571
v 1.437978 0.086052 -1.086053
v 1.437978 0.046571 -1.112434
v 1.728319 -0.000001 -1.085736
v 1.728319 -0.032811 -1.079210
v 1.728319 -0.060626 -1.060625
v 1.728319 -0.079211 -1.032810
v 1.728319 -0.085737 -1.000000
v 1.728319 -0.079211 -0.967190
v 1.728319 -0.060626 -0.939375
v 1.728319 -0.032811 -0.920790
v 1.728319 -0.000001 -0.914264
v 1.728319 0.032809 -0.920790
v 1.728319 0.060624 -0.939375
v 1.728319 0.079209 -0.967190
v 1.728319 0.085735 -1.000000
v 1.728319 0.079209 -1.032810
v 1.728319 0.060624 -1.060625
v 1.728319 0.032809 -1.079210
vt 1.000000 0.000000
vt 1.000000 1.000000
vt 0.000000 1.000000
vt 0.000000 0.000000
vt 0.500000 0.000000
vt 0.308658 0.038060
vt 0.146447 0.146446
vt 0.853553 0.146447
vt 0.691342 0.038060
vt 0.038060 0.308658
vt 0.691342 0.961940
vt 0.961940 0.691342
vt 0.500000 1.000000
vt 0.853553 0.853553
vt 1.000000 0.500000
vt 0.961940 0.308658
vt 0.038060 0.691342
vt 0.000000 0.500000
vt 0.146447 0.853554
vt 0.308659 0.961940
vn 0.005873 -0.195086 -0.980769
vn 0.005873 -0.555561 -0.831455
vn 0.005873 -0.831455 -0.555561
vn 0.005873 -0.980768 -0.195087
vn 0.005873 -0.980768 0.195087
vn 0.005873 -0.831456 0.555560
vn 0.005873 -0.555559 0.831456
vn 0.005873 -0.195088 0.980768
vn 0.005873 0.195086 0.980769
vn 0.005874 0.555561 0.831455
vn 0.005874 0.831456 0.555560
vn 0.005874 0.980768 0.195087
vn 0.005874 0.980768 -0.195088
vn 0.005874 0.831455 -0.555561
vn -0.633706 -0.643203 -0.429774
vn 0.005873 0.195086 -0.980769
vn 0.005874 0.555561 -0.831455
vn -1.000000 -0.000005 -0.000005
vn 0.120591 -0.193665 -0.973628
vn -0.633704 0.429776 -0.643205
vn -0.633706 -0.429773 0.643204
vn -0.633703 0.643206 0.429775
vn -0.633703 0.429778 0.643204
vn -0.633705 -0.429775 -0.643204
vn -0.633705 -0.150921 -0.758710
vn -0.633702 0.643206 -0.429776
vn -0.633706 -0.643204 0.429775
vn -0.633703 0.758713 -0.150917
vn -0.633707 -0.758709 0.150917
vn -0.633705 0.150915 0.758712
vn -0.633705 -0.150914 0.758711
vn -0.633702 0.758713 0.150918
vn -0.633706 -0.758710 -0.150917
vn -0.633705 0.150917 -0.758711
vn 1.000000 -0.000001 -0.000001
vn 0.120592 0.973628 -0.193667
vn 0.120591 0.193664 0.973628
vn 0.120590 -0.973628 0.193667
vn 0.120591 -0.825402 0.551516
vn 0.120591 -0.551517 -0.825401
vn 0.120592 0.825401 -0.551517
vn 0.120592 0.551515 0.825402
vn 0.120592 0.825401 0.551516
vn 0.120591 -0.551515 0.825402
vn 0.120591 -0.825402 -0.551516
vn 0.120591 0.551517 -0.825401
vn 0.120591 0.193666 -0.973628
vn 0.120592 0.973628 0.193666
vn 0.120591 -0.193666 0.973628
vn 0.120591 -0.973628 -0.193667
vn 0.005873 -0.195085 -0.980769
vn 0.005873 -0.831456 -0.555560
vn 0.005873 -0.980768 -0.195088
vn 0.005873 -0.831455 0.555561
vn 0.005873 -0.555561 0.831455
vn 0.005873 -0.195087 0.980769
vn 0.005873 0.195087 0.980768
vn 0.005874 0.831455 0.555561
vn 0.005874 0.980768 -0.195087
vn 0.005874 0.831456 -0.555560
vn -0.633706 -0.643203 -0.429775
vn 0.005873 0.195085 -0.980769
vn -1.000000 -0.000001 -0.000002
vn -1.000000 -0.000001 0.000003
vn -1.000000 0.000004 0.000000
vn 0.120591 -0.193669 -0.973627
vn -0.633703 0.429776 -0.643205
vn -1.000000 -0.000004 0.000000
vn -1.000000 0.000001 0.000000
vn -1.000000 0.000003 0.000000
vn -1.000000 -0.000002 0.000005
vn -1.000000 0.000002 0.000002
vn -1.000000 0.000000 -0.000000
vn -1.000000 -0.000000 -0.000001
vn -0.633706 -0.429774 0.643203
vn -0.633702 0.643206 0.429776
vn -0.633704 0.429774 0.643206
vn -0.633704 -0.429776 -0.643204
vn -0.633705 -0.150914 -0.758711
vn -0.633703 0.643204 -0.429777
vn -0.633707 -0.643202 0.429774
vn -0.633701 0.758714 -0.150917
vn -0.633706 -0.758710 0.150917
vn -0.633704 0.150918 0.758711
vn -0.633705 -0.150917 0.758711
vn -0.633701 0.758714 0.150917
vn -0.633705 0.150915 -0.758711
vn 1.000000 -0.000001 0.000000
vn 1.000000 -0.000007 0.000008
vn 1.000000 -0.000016 0.000000
vn 0.120591 0.193666 0.973628
vn 1.000000 -0.000000 -0.000008
vn 1.000000 -0.000003 0.000001
vn 1.000000 0.000001 0.000000
vn 1.000000 0.000013 0.000000
vn 1.000000 0.000000 0.000003
vn 1.000000 -0.000000 0.000000
vn 1.000000 0.000005 0.000000
vn 0.120591 -0.973628 0.193667
vn 0.120591 -0.551515 -0.825403
vn 0.120592 0.825402 -0.551516
vn 0.120591 0.551516 0.825402
vn 0.120592 0.825402 0.551515
vn 0.120591 -0.825401 -0.551517
vn 0.120591 0.551516 -0.825402
vn 0.120592 0.193665 -0.973628
vn 0.120592 0.973628 0.193667
vn 0.120591 -0.193667 0.973628
vn 0.120590 -0.973628 -0.193667
usemtl Material.005
s off
f 66/21/108 68/22/108 67/23/108
f 68/21/109 70/22/109 69/23/109
f 70/21/110 72/22/110 71/23/110
f 72/21/111 74/22/111 73/23/111
f 74/21/112 76/22/112 75/23/112
f 75/24/113 76/21/113 78/22/113
f 77/24/114 78/21/114 80/22/114
f 80/21/115 82/22/115 81/23/115
f 81/24/116 82/21/116 84/22/116
f 84/21/117 86/22/117 85/23/117
f 86/21/118 88/22/118 87/23/118
f 88/21/119 90/22/119 89/23/119
f 89/24/120 90/21/120 92/22/120
f 91/24/121 92/21/121 94/22/121
f 70/21/122 99/22/122 100/23/122
f 96/21/123 66/22/123 65/23/123
f 94/21/124 96/22/124 95/23/124
f 81/25/125 83/26/125 85/27/125
f 97/21/126 113/22/126 114/23/126
f 94/21/127 111/22/127 112/23/127
f 80/24/128 78/21/128 103/22/128
f 88/24/129 86/21/129 107/22/129
f 86/24/130 84/21/130 106/22/130
f 68/21/131 98/22/131 99/23/131
f 66/21/132 97/22/132 98/23/132
f 92/21/133 110/22/133 111/23/133
f 78/24/134 76/21/134 102/22/134
f 90/21/135 109/22/135 110/23/135
f 74/21/136 101/22/136 102/23/136
f 84/24/137 82/21/137 105/22/137
f 82/24/138 80/21/138 104/22/138
f 90/24/139 88/21/139 108/22/139
f 74/24/140 72/21/140 100/22/140
f 96/21/141 112/22/141 97/23/141
f 124/28/142 123/29/142 119/30/142
f 109/21/143 125/22/143 126/23/143
f 105/21/144 121/22/144 122/23/144
f 102/24/145 101/21/145 117/22/145
f 102/21/146 118/22/146 119/23/146
f 98/21/147 114/22/147 115/23/147
f 110/21/148 126/22/148 127/23/148
f 107/24/149 106/21/149 122/22/149
f 108/24/150 107/21/150 123/22/150
f 104/24/151 103/21/151 119/22/151
f 100/24/152 99/21/152 115/22/152
f 111/21/153 127/22/153 128/23/153
f 97/24/154 112/21/154 128/22/154
f 109/24/155 108/21/155 124/22/155
f 105/24/156 104/21/156 120/22/156
f 100/21/157 116/22/157 117/23/157
f 65/24/158 66/21/158 67/23/158
f 67/24/109 68/21/109 69/23/109
f 69/24/159 70/21/159 71/23/159
f 71/24/160 72/21/160 73/23/160
f 73/24/112 74/21/112 75/23/112
f 77/23/161 75/24/161 78/22/161
f 79/23/162 77/24/162 80/22/162
f 79/24/163 80/21/163 81/23/163
f 83/23/164 81/24/164 84/22/164
f 83/24/117 84/21/117 85/23/117
f 85/24/165 86/21/165 87/23/165
f 87/24/119 88/21/119 89/23/119
f 91/23/166 89/24/166 92/22/166
f 93/23/167 91/24/167 94/22/167
f 72/24/168 70/21/168 100/23/168
f 95/24/169 96/21/169 65/23/169
f 93/24/124 94/21/124 95/23/124
f 67/31/170 71/32/170 65/33/170
f 67/31/171 69/34/171 71/32/171
f 71/32/172 73/35/172 75/36/172
f 98/24/173 97/21/173 114/23/173
f 96/24/174 94/21/174 112/23/174
f 87/30/172 91/37/172 85/27/172
f 87/30/175 89/38/175 91/37/175
f 77/28/176 81/25/176 85/27/176
f 71/32/177 75/36/177 77/28/177
f 77/28/178 79/29/178 81/25/178
f 91/37/176 77/28/176 85/27/176
f 93/39/179 95/40/179 71/32/179
f 71/32/180 77/28/180 93/39/180
f 93/39/180 77/28/180 91/37/180
f 71/32/181 95/40/181 65/33/181
f 104/23/182 80/24/182 103/22/182
f 108/23/183 88/24/183 107/22/183
f 107/23/184 86/24/184 106/22/184
f 70/24/185 68/21/185 99/23/185
f 68/24/186 66/21/186 98/23/186
f 94/24/187 92/21/187 111/23/187
f 103/23/188 78/24/188 102/22/188
f 92/24/189 90/21/189 110/23/189
f 76/24/190 74/21/190 102/23/190
f 106/23/191 84/24/191 105/22/191
f 105/23/192 82/24/192 104/22/192
f 109/23/193 90/24/193 108/22/193
f 101/23/140 74/24/140 100/22/140
f 66/24/194 96/21/194 97/23/194
f 115/40/195 114/33/195 113/31/195
f 113/31/196 128/34/196 127/32/196
f 127/32/197 126/35/197 125/36/197
f 106/24/198 105/21/198 122/23/198
f 123/29/199 122/25/199 121/26/199
f 119/30/200 123/29/200 120/27/200
f 117/37/201 115/40/201 118/38/201
f 117/37/202 116/39/202 115/40/202
f 127/32/142 119/30/142 113/31/142
f 123/29/203 121/26/203 120/27/203
f 115/40/201 119/30/201 118/38/201
f 110/24/143 109/21/143 126/23/143
f 127/32/204 124/28/204 119/30/204
f 119/30/195 115/40/195 113/31/195
f 127/32/205 125/36/205 124/28/205
f 118/23/206 102/24/206 117/22/206
f 103/24/146 102/21/146 119/23/146
f 99/24/207 98/21/207 115/23/207
f 111/24/208 110/21/208 127/23/208
f 123/23/209 107/24/209 122/22/209
f 124/23/210 108/24/210 123/22/210
f 120/23/151 104/24/151 119/22/151
f 116/23/211 100/24/211 115/22/211
f 112/24/212 111/21/212 128/23/212
f 113/23/213 97/24/213 128/22/213
f 125/23/214 109/24/214 124/22/214
f 121/23/215 105/24/215 120/22/215
f 101/24/216 100/21/216 117/23/216
