# Blender v2.70 (sub 0) OBJ File: 'Player.blend'
# www.blender.org
mtllib Player_43ratio.mtl
o Cylinder.001_Cylinder.002
v -0.471673 0.000000 0.921162
v 1.028494 -0.000000 0.933140
v -0.471673 -0.030170 0.927163
v 1.028494 -0.025587 0.938229
v -0.471673 -0.055746 0.944253
v 1.028494 -0.047278 0.952723
v -0.471673 -0.072836 0.969830
v 1.028494 -0.061771 0.974414
v -0.471673 -0.078838 1.000000
v 1.028494 -0.066861 1.000000
v -0.471673 -0.072836 1.030170
v 1.028494 -0.061771 1.025586
v -0.471673 -0.055746 1.055747
v 1.028494 -0.047278 1.047277
v -0.471673 -0.030170 1.072837
v 1.028494 -0.025587 1.061771
v -0.471673 0.000000 1.078838
v 1.028494 -0.000000 1.066860
v -0.471673 0.030170 1.072837
v 1.028494 0.025586 1.061771
v -0.471673 0.055747 1.055747
v 1.028494 0.047277 1.047277
v -0.471673 0.072837 1.030170
v 1.028494 0.061770 1.025586
v -0.471673 0.078838 1.000000
v 1.028494 0.066860 1.000000
v -0.471673 0.072837 0.969830
v 1.028494 0.061770 0.974414
v -0.471673 0.055747 0.944253
v 1.028494 0.047277 0.952723
v -0.471673 0.030170 0.927163
v 1.028494 0.025586 0.938229
v 1.094149 -0.000001 0.878303
v 1.094149 -0.046572 0.887567
v 1.094149 -0.086054 0.913947
v 1.094149 -0.112434 0.953429
v 1.094149 -0.121698 1.000000
v 1.094149 -0.112434 1.046571
v 1.094149 -0.086054 1.086053
v 1.094149 -0.046572 1.112433
v 1.094149 -0.000001 1.121697
v 1.094149 0.046571 1.112434
v 1.094149 0.086052 1.086053
v 1.094149 0.112433 1.046571
v 1.094149 0.121696 1.000000
v 1.094149 0.112433 0.953429
v 1.094149 0.086052 0.913947
v 1.094149 0.046571 0.887566
v 1.384490 -0.000001 0.914264
v 1.384490 -0.032811 0.920790
v 1.384490 -0.060626 0.939375
v 1.384490 -0.079211 0.967190
v 1.384490 -0.085737 1.000000
v 1.384490 -0.079211 1.032810
v 1.384490 -0.060626 1.060625
v 1.384490 -0.032811 1.079210
v 1.384490 -0.000001 1.085736
v 1.384490 0.032809 1.079210
v 1.384490 0.060624 1.060625
v 1.384490 0.079209 1.032810
v 1.384490 0.085735 1.000000
v 1.384490 0.079209 0.967190
v 1.384490 0.060624 0.939375
v 1.384490 0.032809 0.920790
vt 1.000000 0.000000
vt 1.000000 1.000000
vt 0.000000 1.000000
vt 0.000000 0.000000
vt 0.853553 0.146447
vt 0.691342 0.038060
vt 0.500000 0.000000
vt 0.038060 0.308658
vt 0.308659 0.961940
vt 0.691342 0.961940
vt 0.853553 0.853553
vt 0.500000 1.000000
vt 0.961940 0.308658
vt 1.000000 0.500000
vt 0.146447 0.853554
vt 0.000000 0.500000
vt 0.146447 0.146446
vt 0.038060 0.691342
vt 0.961940 0.691342
vt 0.308658 0.038060
vn 0.007831 -0.195086 -0.980755
vn 0.007830 -0.555552 -0.831445
vn 0.007830 -0.831445 -0.555552
vn 0.007830 -0.980755 -0.195084
vn 0.007830 -0.980755 0.195084
vn 0.007830 -0.831444 0.555554
vn 0.007830 -0.555554 0.831444
vn 0.007831 -0.195084 0.980755
vn 0.007831 0.195084 0.980755
vn 0.007831 0.555553 0.831444
vn 0.007831 0.831444 0.555554
vn 0.007831 0.980755 0.195084
vn 0.007831 0.980755 -0.195085
vn 0.007831 0.831444 -0.555553
vn -0.633706 -0.643203 -0.429776
vn 0.007831 0.195084 -0.980755
vn 0.007831 0.555553 -0.831444
vn -1.000000 0.000000 -0.000002
vn 0.120591 -0.193667 -0.973628
vn -0.633703 0.429777 -0.643204
vn -0.633708 -0.429773 0.643202
vn -0.633704 0.643206 0.429775
vn -0.633704 0.429777 0.643204
vn -0.633706 -0.429775 -0.643204
vn -0.633704 -0.150917 -0.758712
vn -0.633703 0.643206 -0.429775
vn -0.633706 -0.643203 0.429775
vn -0.633703 0.758712 -0.150918
vn -0.633706 -0.758710 0.150917
vn -0.633704 0.150920 0.758711
vn -0.633705 -0.150917 0.758711
vn -0.633703 0.758712 0.150917
vn -0.633707 -0.758709 -0.150917
vn -0.633705 0.150916 -0.758711
vn 1.000000 0.000001 0.000000
vn 0.120592 0.973628 -0.193667
vn 0.120591 0.193667 0.973628
vn 0.120591 -0.973628 0.193666
vn 0.120591 -0.825401 0.551517
vn 0.120591 -0.551516 -0.825402
vn 0.120592 0.825401 -0.551516
vn 0.120592 0.551517 0.825401
vn 0.120592 0.825401 0.551517
vn 0.120591 -0.551517 0.825401
vn 0.120591 -0.825402 -0.551516
vn 0.120591 0.551516 -0.825402
vn 0.120592 0.193665 -0.973628
vn 0.120592 0.973628 0.193667
vn 0.120590 -0.193666 0.973628
vn 0.120590 -0.973628 -0.193667
vn 0.007831 -0.195084 -0.980755
vn 0.007830 -0.555554 -0.831444
vn 0.007830 -0.831444 -0.555553
vn 0.007830 -0.980755 -0.195085
vn 0.007830 -0.980755 0.195085
vn 0.007830 -0.831445 0.555553
vn 0.007831 -0.195082 0.980756
vn 0.007831 0.195082 0.980756
vn 0.007831 0.555554 0.831444
vn 0.007831 0.831445 0.555552
vn 0.007831 0.980755 0.195085
vn 0.007831 0.980755 -0.195084
vn 0.007831 0.831444 -0.555554
vn -0.633706 -0.643203 -0.429774
vn -1.000000 0.000001 0.000002
vn -0.633705 0.429772 -0.643206
vn -1.000000 0.000003 -0.000000
vn -1.000000 0.000000 -0.000000
vn -1.000000 0.000002 0.000000
vn -1.000000 0.000000 -0.000001
vn -1.000000 0.000001 -0.000000
vn -1.000000 0.000004 0.000000
vn -1.000000 0.000001 0.000001
vn -0.633705 -0.429774 0.643205
vn -0.633702 0.643205 0.429777
vn -0.633706 -0.429775 -0.643203
vn -0.633705 -0.150917 -0.758711
vn -0.633702 0.643207 -0.429775
vn -0.633706 -0.643202 0.429776
vn -0.633702 0.758713 -0.150918
vn -0.633707 -0.758709 0.150917
vn -0.633705 0.150915 0.758711
vn -0.633705 -0.150919 0.758711
vn -0.633702 0.758713 0.150918
vn -0.633706 -0.758710 -0.150917
vn -0.633704 0.150918 -0.758712
vn 1.000000 -0.000001 0.000000
vn 1.000000 0.000008 0.000000
vn 1.000000 0.000000 0.000000
vn 1.000000 -0.000017 0.000000
vn 1.000000 0.000003 0.000000
vn 1.000000 -0.000005 0.000000
vn 1.000000 0.000011 0.000000
vn 1.000000 0.000002 0.000000
vn 0.120591 0.193665 0.973628
vn 0.120590 -0.973628 0.193666
vn 0.120591 -0.825402 0.551516
vn 0.120592 0.551516 0.825401
vn 0.120592 0.825401 0.551516
vn 0.120591 -0.551515 0.825403
vn 0.120590 -0.825402 -0.551516
vn 0.120591 -0.193669 0.973627
usemtl Material.005
s off
f 2/1/1 4/2/1 3/3/1
f 4/1/2 6/2/2 5/3/2
f 6/1/3 8/2/3 7/3/3
f 8/1/4 10/2/4 9/3/4
f 10/1/5 12/2/5 11/3/5
f 12/1/6 14/2/6 13/3/6
f 14/1/7 16/2/7 15/3/7
f 16/1/8 18/2/8 17/3/8
f 17/4/9 18/1/9 20/2/9
f 20/1/10 22/2/10 21/3/10
f 22/1/11 24/2/11 23/3/11
f 24/1/12 26/2/12 25/3/12
f 26/1/13 28/2/13 27/3/13
f 28/1/14 30/2/14 29/3/14
f 6/1/15 35/2/15 36/3/15
f 32/1/16 2/2/16 1/3/16
f 30/1/17 32/2/17 31/3/17
f 13/5/18 15/6/18 17/7/18
f 33/1/19 49/2/19 50/3/19
f 30/1/20 47/2/20 48/3/20
f 16/4/21 14/1/21 39/2/21
f 22/1/22 43/2/22 44/3/22
f 22/4/23 20/1/23 42/2/23
f 4/1/24 34/2/24 35/3/24
f 2/1/25 33/2/25 34/3/25
f 28/1/26 46/2/26 47/3/26
f 14/4/27 12/1/27 38/2/27
f 26/1/28 45/2/28 46/3/28
f 12/4/29 10/1/29 37/2/29
f 20/4/30 18/1/30 41/2/30
f 18/4/31 16/1/31 40/2/31
f 24/1/32 44/2/32 45/3/32
f 8/1/33 36/2/33 37/3/33
f 32/1/34 48/2/34 33/3/34
f 59/6/35 55/8/35 51/9/35
f 46/4/36 45/1/36 61/2/36
f 42/4/37 41/1/37 57/2/37
f 37/1/38 53/2/38 54/3/38
f 38/1/39 54/2/39 55/3/39
f 34/1/40 50/2/40 51/3/40
f 46/1/41 62/2/41 63/3/41
f 42/1/42 58/2/42 59/3/42
f 43/1/43 59/2/43 60/3/43
f 39/1/44 55/2/44 56/3/44
f 36/4/45 35/1/45 51/2/45
f 47/1/46 63/2/46 64/3/46
f 48/1/47 64/2/47 49/3/47
f 44/1/48 60/2/48 61/3/48
f 40/1/49 56/2/49 57/3/49
f 36/1/50 52/2/50 53/3/50
f 1/4/51 2/1/51 3/3/51
f 3/4/52 4/1/52 5/3/52
f 5/4/53 6/1/53 7/3/53
f 7/4/54 8/1/54 9/3/54
f 9/4/55 10/1/55 11/3/55
f 11/4/56 12/1/56 13/3/56
f 13/4/7 14/1/7 15/3/7
f 15/4/57 16/1/57 17/3/57
f 19/3/58 17/4/58 20/2/58
f 19/4/59 20/1/59 21/3/59
f 21/4/60 22/1/60 23/3/60
f 23/4/61 24/1/61 25/3/61
f 25/4/62 26/1/62 27/3/62
f 27/4/63 28/1/63 29/3/63
f 8/4/64 6/1/64 36/3/64
f 31/4/16 32/1/16 1/3/16
f 29/4/17 30/1/17 31/3/17
f 3/10/65 5/11/65 1/12/65
f 32/4/66 30/1/66 48/3/66
f 11/13/67 5/11/67 9/14/67
f 17/7/68 23/8/68 31/9/68
f 29/15/69 23/8/69 25/16/69
f 23/8/70 17/7/70 21/17/70
f 27/18/67 29/15/67 25/16/67
f 31/9/68 23/8/68 29/15/68
f 5/11/71 11/13/71 1/12/71
f 34/4/19 33/1/19 50/3/19
f 5/11/72 7/19/72 9/14/72
f 17/7/65 19/20/65 21/17/65
f 13/5/73 17/7/73 11/13/73
f 11/13/69 31/9/69 1/12/69
f 11/13/71 17/7/71 31/9/71
f 40/3/74 16/4/74 39/2/74
f 24/4/75 22/1/75 44/3/75
f 43/3/23 22/4/23 42/2/23
f 6/4/76 4/1/76 35/3/76
f 4/4/77 2/1/77 34/3/77
f 30/4/78 28/1/78 47/3/78
f 39/3/79 14/4/79 38/2/79
f 28/4/80 26/1/80 46/3/80
f 38/3/81 12/4/81 37/2/81
f 42/3/82 20/4/82 41/2/82
f 41/3/83 18/4/83 40/2/83
f 26/4/84 24/1/84 45/3/84
f 10/4/85 8/1/85 37/3/85
f 2/4/86 32/1/86 33/3/86
f 49/10/87 63/19/87 50/12/87
f 49/10/88 64/11/88 63/19/88
f 61/13/89 51/9/89 62/14/89
f 61/13/90 60/5/90 59/6/90
f 59/6/91 58/7/91 57/20/91
f 57/20/92 56/17/92 55/8/92
f 55/8/93 54/16/93 53/18/93
f 53/18/94 52/15/94 51/9/94
f 58/3/95 42/4/95 57/2/95
f 59/6/35 51/9/35 61/13/35
f 59/6/87 57/20/87 55/8/87
f 55/8/35 53/18/35 51/9/35
f 51/9/89 63/19/89 62/14/89
f 62/3/36 46/4/36 61/2/36
f 63/19/89 51/9/89 50/12/89
f 38/4/96 37/1/96 54/3/96
f 39/4/97 38/1/97 55/3/97
f 35/4/40 34/1/40 51/3/40
f 47/4/41 46/1/41 63/3/41
f 43/4/98 42/1/98 59/3/98
f 44/4/99 43/1/99 60/3/99
f 40/4/100 39/1/100 56/3/100
f 52/3/101 36/4/101 51/2/101
f 48/4/46 47/1/46 64/3/46
f 33/4/47 48/1/47 49/3/47
f 45/4/48 44/1/48 61/3/48
f 41/4/102 40/1/102 57/3/102
f 37/4/50 36/1/50 53/3/50
o Cylinder_Cylinder.001
v -0.471673 0.000000 -1.078838
v 1.028494 -0.000000 -1.066860
v -0.471673 -0.030170 -1.072837
v 1.028494 -0.025587 -1.061771
v -0.471673 -0.055746 -1.055747
v 1.028494 -0.047278 -1.047277
v -0.471673 -0.072836 -1.030170
v 1.028494 -0.061771 -1.025586
v -0.471673 -0.078838 -1.000000
v 1.028494 -0.066861 -1.000000
v -0.471673 -0.072836 -0.969830
v 1.028494 -0.061771 -0.974414
v -0.471673 -0.055746 -0.944253
v 1.028494 -0.047278 -0.952723
v -0.471673 -0.030170 -0.927163
v 1.028494 -0.025587 -0.938229
v -0.471673 0.000000 -0.921162
v 1.028494 -0.000000 -0.933140
v -0.471673 0.030170 -0.927163
v 1.028494 0.025586 -0.938229
v -0.471673 0.055747 -0.944253
v 1.028494 0.047277 -0.952723
v -0.471673 0.072837 -0.969830
v 1.028494 0.061770 -0.974414
v -0.471673 0.078838 -1.000000
v 1.028494 0.066860 -1.000000
v -0.471673 0.072837 -1.030170
v 1.028494 0.061770 -1.025586
v -0.471673 0.055747 -1.055747
v 1.028494 0.047277 -1.047277
v -0.471673 0.030170 -1.072837
v 1.028494 0.025586 -1.061771
v 1.094149 -0.000001 -1.121697
v 1.094149 -0.046572 -1.112433
v 1.094149 -0.086054 -1.086053
v 1.094149 -0.112434 -1.046571
v 1.094149 -0.121698 -1.000000
v 1.094149 -0.112434 -0.953429
v 1.094149 -0.086054 -0.913947
v 1.094149 -0.046572 -0.887567
v 1.094149 -0.000001 -0.878303
v 1.094149 0.046571 -0.887567
v 1.094149 0.086052 -0.913947
v 1.094149 0.112433 -0.953429
v 1.094149 0.121696 -1.000000
v 1.094149 0.112433 -1.046571
v 1.094149 0.086052 -1.086053
v 1.094149 0.046571 -1.112434
v 1.384490 -0.000001 -1.085736
v 1.384490 -0.032811 -1.079210
v 1.384490 -0.060626 -1.060625
v 1.384490 -0.079211 -1.032810
v 1.384490 -0.085737 -1.000000
v 1.384490 -0.079211 -0.967190
v 1.384490 -0.060626 -0.939375
v 1.384490 -0.032811 -0.920790
v 1.384490 -0.000001 -0.914264
v 1.384490 0.032809 -0.920790
v 1.384490 0.060624 -0.939375
v 1.384490 0.079209 -0.967190
v 1.384490 0.085735 -1.000000
v 1.384490 0.079209 -1.032810
v 1.384490 0.060624 -1.060625
v 1.384490 0.032809 -1.079210
vt 1.000000 0.000000
vt 1.000000 1.000000
vt 0.000000 1.000000
vt 0.000000 0.000000
vt 0.038060 0.691342
vt 0.961940 0.691342
vt 0.500000 0.000000
vt 0.038060 0.308658
vt 0.308659 0.961940
vt 0.691342 0.961940
vt 0.500000 1.000000
vt 0.853553 0.853553
vt 1.000000 0.500000
vt 0.961940 0.308658
vt 0.691342 0.038060
vt 0.000000 0.500000
vt 0.146447 0.146446
vt 0.146447 0.853554
vt 0.853553 0.146447
vt 0.308658 0.038060
vn 0.007831 -0.195083 -0.980755
vn 0.007830 -0.555554 -0.831444
vn 0.007830 -0.831444 -0.555554
vn 0.007830 -0.980755 -0.195084
vn 0.007830 -0.980755 0.195084
vn 0.007830 -0.831445 0.555552
vn 0.007830 -0.555552 0.831445
vn 0.007831 -0.195086 0.980755
vn 0.007831 0.195084 0.980755
vn 0.007831 0.555553 0.831444
vn 0.007831 0.831444 0.555553
vn 0.007831 0.980755 0.195084
vn 0.007831 0.980755 -0.195085
vn 0.007831 0.831444 -0.555554
vn -0.633706 -0.643203 -0.429776
vn 0.007831 0.195084 -0.980755
vn 0.007831 0.555553 -0.831444
vn -1.000000 0.000001 0.000000
vn 0.120591 -0.193665 -0.973628
vn -0.633705 0.429775 -0.643204
vn -0.633705 -0.429774 0.643204
vn -0.633703 0.643207 0.429774
vn -0.633704 0.429777 0.643204
vn -0.633704 -0.429775 -0.643205
vn -0.633705 -0.150919 -0.758710
vn -0.633703 0.643206 -0.429775
vn -0.633706 -0.643203 0.429775
vn -0.633703 0.758712 -0.150918
vn -0.633706 -0.758710 0.150917
vn -0.633703 0.150920 0.758712
vn -0.633704 -0.150917 0.758712
vn -0.633703 0.758712 0.150917
vn -0.633705 -0.758711 -0.150917
vn -0.633705 0.150917 -0.758711
vn 1.000000 0.000001 0.000000
vn 0.120592 0.973628 -0.193667
vn 0.120591 0.193667 0.973628
vn 0.120590 -0.973628 0.193667
vn 0.120591 -0.825402 0.551516
vn 0.120591 -0.551517 -0.825401
vn 0.120592 0.825401 -0.551517
vn 0.120592 0.551516 0.825402
vn 0.120592 0.825402 0.551516
vn 0.120591 -0.551516 0.825402
vn 0.120591 -0.825402 -0.551516
vn 0.120591 0.551517 -0.825401
vn 0.120591 0.193665 -0.973628
vn 0.120592 0.973628 0.193667
vn 0.120591 -0.193666 0.973628
vn 0.120590 -0.973628 -0.193667
vn 0.007831 -0.195082 -0.980756
vn 0.007830 -0.831445 -0.555553
vn 0.007830 -0.980755 -0.195085
vn 0.007830 -0.831444 0.555553
vn 0.007830 -0.555554 0.831444
vn 0.007831 -0.195084 0.980755
vn 0.007831 0.555554 0.831444
vn 0.007831 0.831444 -0.555553
vn -0.633706 -0.643203 -0.429775
vn 0.007831 0.195082 -0.980756
vn -1.000000 -0.000006 -0.000002
vn -1.000000 -0.000002 0.000000
vn -1.000000 -0.000000 -0.000001
vn -1.000000 -0.000000 -0.000000
vn -1.000000 -0.000000 -0.000002
vn -1.000000 -0.000001 0.000001
vn -0.633704 0.429775 -0.643205
vn -1.000000 0.000001 0.000002
vn 0.120591 -0.193669 -0.973627
vn -0.633706 -0.429775 0.643204
vn -0.633704 0.643205 0.429776
vn -0.633704 0.429774 0.643205
vn -0.633703 -0.429777 -0.643204
vn -0.633704 -0.150917 -0.758712
vn -0.633702 0.643207 -0.429775
vn -0.633702 0.758713 -0.150918
vn -0.633707 -0.758709 0.150917
vn -0.633705 0.150915 0.758711
vn -0.633704 -0.150917 0.758711
vn -0.633702 0.758713 0.150918
vn -0.633706 -0.758710 -0.150917
vn -0.633704 0.150918 -0.758711
vn 1.000000 -0.000003 0.000000
vn 1.000000 0.000005 0.000000
vn 1.000000 -0.000011 0.000000
vn 1.000000 0.000004 0.000000
vn 1.000000 0.000007 0.000000
vn 1.000000 0.000000 0.000000
vn 1.000000 0.000006 0.000000
vn 1.000000 0.000017 0.000000
vn 1.000000 0.000002 0.000000
vn 0.120591 0.193665 0.973628
vn 1.000000 0.000003 0.000000
vn 0.120593 0.973628 -0.193667
vn 0.120590 -0.973628 0.193666
vn 0.120591 -0.551515 -0.825403
vn 0.120592 0.825401 -0.551516
vn 0.120592 0.825401 0.551516
vn 0.120591 -0.825401 -0.551517
vn 0.120591 0.551516 -0.825402
vn 0.120591 0.193667 -0.973628
vn 0.120591 -0.193667 0.973628
usemtl Material.005
s off
f 66/21/103 68/22/103 67/23/103
f 67/24/104 68/21/104 70/22/104
f 70/21/105 72/22/105 71/23/105
f 72/21/106 74/22/106 73/23/106
f 74/21/107 76/22/107 75/23/107
f 75/24/108 76/21/108 78/22/108
f 78/21/109 80/22/109 79/23/109
f 80/21/110 82/22/110 81/23/110
f 81/24/111 82/21/111 84/22/111
f 84/21/112 86/22/112 85/23/112
f 86/21/113 88/22/113 87/23/113
f 88/21/114 90/22/114 89/23/114
f 90/21/115 92/22/115 91/23/115
f 92/21/116 94/22/116 93/23/116
f 70/21/117 99/22/117 100/23/117
f 96/21/118 66/22/118 65/23/118
f 94/21/119 96/22/119 95/23/119
f 91/25/120 71/26/120 81/27/120
f 97/21/121 113/22/121 114/23/121
f 94/21/122 111/22/122 112/23/122
f 80/24/123 78/21/123 103/22/123
f 88/24/124 86/21/124 107/22/124
f 86/24/125 84/21/125 106/22/125
f 68/21/126 98/22/126 99/23/126
f 66/21/127 97/22/127 98/23/127
f 92/21/128 110/22/128 111/23/128
f 76/21/129 102/22/129 103/23/129
f 90/21/130 109/22/130 110/23/130
f 76/24/131 74/21/131 101/22/131
f 84/24/132 82/21/132 105/22/132
f 82/24/133 80/21/133 104/22/133
f 88/21/134 108/22/134 109/23/134
f 74/24/135 72/21/135 100/22/135
f 96/21/136 112/22/136 97/23/136
f 119/28/137 115/29/137 127/26/137
f 109/21/138 125/22/138 126/23/138
f 106/24/139 105/21/139 121/22/139
f 101/21/140 117/22/140 118/23/140
f 102/21/141 118/22/141 119/23/141
f 98/21/142 114/22/142 115/23/142
f 110/21/143 126/22/143 127/23/143
f 106/21/144 122/22/144 123/23/144
f 107/21/145 123/22/145 124/23/145
f 103/21/146 119/22/146 120/23/146
f 100/24/147 99/21/147 115/22/147
f 111/21/148 127/22/148 128/23/148
f 112/21/149 128/22/149 113/23/149
f 109/24/150 108/21/150 124/22/150
f 105/24/151 104/21/151 120/22/151
f 101/24/152 100/21/152 116/22/152
f 65/24/153 66/21/153 67/23/153
f 69/23/104 67/24/104 70/22/104
f 69/24/154 70/21/154 71/23/154
f 71/24/155 72/21/155 73/23/155
f 73/24/107 74/21/107 75/23/107
f 77/23/156 75/24/156 78/22/156
f 77/24/157 78/21/157 79/23/157
f 79/24/158 80/21/158 81/23/158
f 83/23/111 81/24/111 84/22/111
f 83/24/159 84/21/159 85/23/159
f 85/24/113 86/21/113 87/23/113
f 87/24/114 88/21/114 89/23/114
f 89/24/115 90/21/115 91/23/115
f 91/24/160 92/21/160 93/23/160
f 72/24/161 70/21/161 100/23/161
f 95/24/162 96/21/162 65/23/162
f 93/24/119 94/21/119 95/23/119
f 67/30/120 71/26/120 65/31/120
f 67/30/163 69/32/163 71/26/163
f 71/26/164 73/33/164 75/34/164
f 81/27/120 71/26/120 79/35/120
f 81/27/120 87/28/120 89/36/120
f 87/28/165 81/27/165 85/37/165
f 91/25/166 81/27/166 89/36/166
f 95/29/167 65/31/167 93/38/167
f 65/31/168 91/25/168 93/38/168
f 96/24/169 94/21/169 112/23/169
f 71/26/120 77/39/120 79/35/120
f 81/27/170 83/40/170 85/37/170
f 65/31/120 71/26/120 91/25/120
f 98/24/171 97/21/171 114/23/171
f 75/34/166 77/39/166 71/26/166
f 104/23/172 80/24/172 103/22/172
f 108/23/173 88/24/173 107/22/173
f 107/23/174 86/24/174 106/22/174
f 70/24/175 68/21/175 99/23/175
f 68/24/176 66/21/176 98/23/176
f 94/24/177 92/21/177 111/23/177
f 78/24/129 76/21/129 103/23/129
f 92/24/178 90/21/178 110/23/178
f 102/23/179 76/24/179 101/22/179
f 106/23/180 84/24/180 105/22/180
f 105/23/181 82/24/181 104/22/181
f 90/24/182 88/21/182 109/23/182
f 101/23/183 74/24/183 100/22/183
f 66/24/184 96/21/184 97/23/184
f 115/29/185 114/31/185 113/30/185
f 113/30/186 128/32/186 127/26/186
f 127/26/187 126/33/187 125/34/187
f 115/29/188 119/28/188 118/36/188
f 123/35/189 122/27/189 121/40/189
f 119/28/190 127/26/190 120/37/190
f 117/25/191 115/29/191 118/36/191
f 117/25/192 116/38/192 115/29/192
f 115/29/137 113/30/137 127/26/137
f 124/39/193 123/35/193 121/40/193
f 122/23/194 106/24/194 121/22/194
f 127/26/190 121/40/190 120/37/190
f 127/26/195 125/34/195 124/39/195
f 127/26/190 124/39/190 121/40/190
f 110/24/196 109/21/196 126/23/196
f 102/24/197 101/21/197 118/23/197
f 103/24/141 102/21/141 119/23/141
f 99/24/198 98/21/198 115/23/198
f 111/24/199 110/21/199 127/23/199
f 107/24/144 106/21/144 123/23/144
f 108/24/200 107/21/200 124/23/200
f 104/24/146 103/21/146 120/23/146
f 116/23/201 100/24/201 115/22/201
f 112/24/202 111/21/202 128/23/202
f 97/24/203 112/21/203 113/23/203
f 125/23/150 109/24/150 124/22/150
f 121/23/204 105/24/204 120/22/204
f 117/23/152 101/24/152 116/22/152
